<svg width="89" height="51" viewBox="0 0 89 51" fill="none" xmlns="http://www.w3.org/2000/svg">
<path d="M88.5021 23.6657L66.7087 0.545884C66.0234 -0.181961 64.9216 -0.181961 64.2364 0.545884C63.5512 1.27373 63.5512 2.44399 64.2364 3.17183L83.0202 23.0948H1.84075C0.819605 23.0948 0 23.9654 0 25.05C0 26.1346 0.819605 27.0052 1.84075 27.0052H83.0067L64.223 46.9282C63.5377 47.656 63.5377 48.8263 64.223 49.5541C64.9082 50.282 66.01 50.282 66.6952 49.5541L88.4887 26.4343C88.8514 26.049 89.0127 25.5495 88.9993 25.05C89.0127 24.5505 88.8514 24.051 88.4887 23.6657H88.5021Z" fill="white"/>
</svg>
