<svg width="52" height="44" viewBox="0 0 52 44" fill="none" xmlns="http://www.w3.org/2000/svg">
<path d="M0.435038 22.8658L19.3684 42.6134C19.9578 43.2291 20.9263 43.2291 21.5157 42.6134C22.1052 41.9977 22.1052 40.9861 21.5157 40.3704L5.20697 23.3496L50.4 23.3496C51.2842 23.3496 52 22.6019 52 21.6783C52 20.7547 51.2842 20.007 50.4 20.007L5.20697 20.007L21.5157 2.9863C22.1052 2.37056 22.1052 1.35899 21.5157 0.743255C20.9263 0.127517 19.9578 0.127517 19.3684 0.743255L0.435038 20.4908C0.126265 20.8134 -0.0140819 21.2532 -4.75685e-05 21.6783C-0.0140818 22.1035 0.126265 22.5286 0.435038 22.8658Z" fill="#FF4515"/>
</svg>
