<svg width="52" height="43" viewBox="0 0 52 43" fill="none" xmlns="http://www.w3.org/2000/svg">
<path d="M51.5649 20.2875L32.6316 0.539928C32.0421 -0.0758093 31.0737 -0.0758093 30.4842 0.539928C29.8947 1.15567 29.8947 2.16723 30.4842 2.78297L46.793 19.8037H1.6C0.715789 19.8037 0 20.5514 0 21.475C0 22.3986 0.715789 23.1463 1.6 23.1463H46.793L30.4842 40.167C29.8947 40.7828 29.8947 41.7943 30.4842 42.4101C31.0737 43.0258 32.0421 43.0258 32.6316 42.4101L51.5649 22.6625C51.8737 22.34 52.014 21.9002 52 21.475C52.014 21.0498 51.8737 20.6247 51.5649 20.2875Z" fill="#FF4515"/>
</svg>
