<svg width="30" height="21" viewBox="0 0 30 21" fill="none" xmlns="http://www.w3.org/2000/svg">
<path d="M29.7813 9.91974L20.2091 0.228814C19.9081 -0.0762712 19.4242 -0.0762712 19.1232 0.228814C18.8223 0.533898 18.8223 1.02443 19.1232 1.32951L27.3735 9.68046H0.808502C0.35999 9.68046 0 10.0454 0 10.5C0 10.9546 0.35999 11.3195 0.808502 11.3195H27.3676L19.1173 19.6705C18.8164 19.9756 18.8164 20.4661 19.1173 20.7712C19.4183 21.0763 19.9022 21.0763 20.2032 20.7712L29.7754 11.0803C29.9347 10.9187 30.0056 10.7094 29.9997 10.5C30.0056 10.2906 29.9347 10.0813 29.7754 9.91974H29.7813Z" fill="black"/>
</svg>
