<svg width="30" height="21" viewBox="0 0 30 21" fill="none" xmlns="http://www.w3.org/2000/svg">
<path d="M0.218705 11.0803L9.79088 20.7712C10.0919 21.0763 10.5758 21.0763 10.8768 20.7712C11.1777 20.4661 11.1777 19.9756 10.8768 19.6705L2.62649 11.3195L29.1915 11.3195C29.64 11.3195 30 10.9546 30 10.5C30 10.0454 29.64 9.68046 29.1915 9.68046L2.6324 9.68046L10.8827 1.32951C11.1836 1.02443 11.1836 0.533899 10.8827 0.228815C10.5817 -0.0762713 10.0978 -0.0762712 9.79679 0.228815L0.224605 9.91974C0.0652647 10.0813 -0.00556276 10.2906 0.00033859 10.5C-0.00556273 10.7094 0.0652648 10.9187 0.224605 11.0803L0.218705 11.0803Z" fill="black"/>
</svg>
