<svg width="63" height="63" viewBox="0 0 63 63" fill="none" xmlns="http://www.w3.org/2000/svg">
<mask id="path-1-outside-1_436_86" maskUnits="userSpaceOnUse" x="0" y="0" width="63" height="63" fill="black">
<rect fill="white" width="63" height="63"/>
<path d="M45.9704 3.41422L6.93018 42.4544C6.73553 42.6491 6.6382 42.7464 6.57123 42.8647C6.50425 42.983 6.47087 43.1165 6.4041 43.3836L2.20211 60.1916C2.11186 60.5526 2.06673 60.7331 2.16682 60.8332C2.2669 60.9333 2.44741 60.8881 2.80842 60.7979L2.80845 60.7979L19.6164 56.5959C19.8835 56.5291 20.017 56.4958 20.1353 56.4288C20.2536 56.3618 20.3509 56.2645 20.5456 56.0698L59.5858 17.0296C60.2525 16.3629 60.5858 16.0296 60.5858 15.6154C60.5858 15.2012 60.2525 14.8678 59.5858 14.2012L48.7988 3.41421C48.1322 2.74755 47.7988 2.41421 47.3846 2.41421C46.9704 2.41421 46.6371 2.74755 45.9704 3.41422Z"/>
</mask>
<path d="M6.93018 42.4544L8.34438 43.8687L8.34439 43.8687L6.93018 42.4544ZM45.9704 3.41422L44.5562 2V2L45.9704 3.41422ZM48.7988 3.41421L50.213 2L50.213 2L48.7988 3.41421ZM59.5858 14.2012L58.1716 15.6154L58.1716 15.6154L59.5858 14.2012ZM59.5858 17.0296L58.1716 15.6154L58.1716 15.6154L59.5858 17.0296ZM20.5456 56.0698L21.9598 57.484L21.9598 57.484L20.5456 56.0698ZM6.4041 43.3836L4.46382 42.8985L6.4041 43.3836ZM2.20211 60.1916L4.1424 60.6766H4.1424L2.20211 60.1916ZM2.80845 60.7979L2.32338 58.8576L2.23624 58.8794L2.15141 58.9089L2.80845 60.7979ZM19.6164 56.5959L19.1313 54.6556L19.6164 56.5959ZM2.16682 60.8332L0.752596 62.2474L0.752602 62.2474L2.16682 60.8332ZM2.80842 60.7979L3.29345 62.7382L3.38061 62.7164L3.46546 62.6869L2.80842 60.7979ZM20.1353 56.4288L19.1499 54.6884L19.1499 54.6884L20.1353 56.4288ZM6.57123 42.8647L4.83084 41.8793L4.83082 41.8793L6.57123 42.8647ZM8.34439 43.8687L47.3846 4.82843L44.5562 2L5.51596 41.0402L8.34439 43.8687ZM47.3846 4.82843L58.1716 15.6154L61 12.787L50.213 2L47.3846 4.82843ZM58.1716 15.6154L19.1313 54.6556L21.9598 57.484L61 18.4438L58.1716 15.6154ZM4.46382 42.8985L0.261828 59.7065L4.1424 60.6766L8.34439 43.8687L4.46382 42.8985ZM3.29352 62.7382L20.1015 58.5362L19.1313 54.6556L2.32338 58.8576L3.29352 62.7382ZM0.261828 59.7065C0.233005 59.8218 0.150553 60.1296 0.122586 60.4155C0.092199 60.7261 0.0650926 61.5599 0.752596 62.2474L3.58103 59.419C3.84671 59.6847 3.99914 60.0005 4.06644 60.2928C4.12513 60.5478 4.10965 60.7429 4.10358 60.8049C4.09698 60.8724 4.08792 60.9041 4.097 60.8631C4.10537 60.8253 4.11788 60.7747 4.1424 60.6766L0.261828 59.7065ZM2.15141 58.9089L2.15138 58.9089L3.46546 62.6869L3.46549 62.6869L2.15141 58.9089ZM2.32339 58.8576C2.22531 58.8821 2.17468 58.8946 2.13695 58.903C2.09596 58.9121 2.12763 58.903 2.19507 58.8964C2.25712 58.8903 2.45224 58.8749 2.70718 58.9336C2.99955 59.0009 3.31535 59.1533 3.58103 59.419L0.752602 62.2474C1.4401 62.9349 2.27386 62.9078 2.58447 62.8774C2.87035 62.8495 3.17818 62.767 3.29345 62.7382L2.32339 58.8576ZM19.1314 54.6556C19.1066 54.6803 19.0856 54.7014 19.066 54.7209C19.0466 54.7402 19.0306 54.756 19.0168 54.7695C19.003 54.783 18.993 54.7927 18.9856 54.7997C18.982 54.8031 18.9793 54.8056 18.9775 54.8073C18.9756 54.809 18.9748 54.8098 18.9748 54.8098C18.9748 54.8098 18.9758 54.8088 18.9778 54.8071C18.9798 54.8054 18.9828 54.8028 18.9868 54.7995C18.9947 54.7929 19.0068 54.7832 19.0225 54.7714C19.0384 54.7595 19.0575 54.7459 19.0795 54.7314C19.1016 54.7168 19.1252 54.7024 19.1499 54.6884L21.1207 58.1692C21.5298 57.9375 21.8402 57.6036 21.9598 57.484L19.1314 54.6556ZM20.1015 58.5362C20.2655 58.4952 20.7116 58.4008 21.1207 58.1692L19.1499 54.6884C19.1746 54.6744 19.1991 54.6616 19.223 54.6501C19.2468 54.6387 19.2682 54.6293 19.2866 54.6218C19.3048 54.6144 19.3194 54.6091 19.3291 54.6057C19.334 54.604 19.3378 54.6027 19.3403 54.6019C19.3427 54.6011 19.3441 54.6007 19.3441 54.6007C19.3441 54.6007 19.343 54.601 19.3406 54.6017C19.3382 54.6024 19.3347 54.6034 19.3299 54.6047C19.3201 54.6075 19.3066 54.6111 19.288 54.616C19.2693 54.6209 19.2475 54.6264 19.2209 54.6331C19.1942 54.6399 19.1652 54.6471 19.1313 54.6556L20.1015 58.5362ZM58.1716 15.6154C58.3435 15.7873 58.4698 15.9138 58.5738 16.0232C58.6786 16.1334 58.7263 16.1906 58.7457 16.2161C58.7645 16.2406 58.7226 16.1918 58.6774 16.0832C58.6254 15.9587 58.5858 15.7964 58.5858 15.6154H62.5858C62.5858 14.7952 62.2282 14.1861 61.9258 13.7898C61.6586 13.4396 61.2934 13.0803 61 12.787L58.1716 15.6154ZM61 18.4438C61.2934 18.1505 61.6586 17.7912 61.9258 17.441C62.2282 17.0446 62.5858 16.4356 62.5858 15.6154H58.5858C58.5858 15.4344 58.6254 15.2721 58.6774 15.1476C58.7226 15.039 58.7645 14.9901 58.7457 15.0147C58.7263 15.0402 58.6786 15.0974 58.5738 15.2075C58.4698 15.317 58.3435 15.4435 58.1716 15.6154L61 18.4438ZM47.3846 4.82843C47.5565 4.6565 47.683 4.53019 47.7925 4.42615C47.9026 4.32142 47.9598 4.27375 47.9853 4.25426C48.0099 4.23555 47.961 4.27736 47.8524 4.32264C47.7279 4.37455 47.5656 4.41421 47.3846 4.41421V0.414214C46.5644 0.414214 45.9554 0.771768 45.559 1.07417C45.2088 1.34136 44.8495 1.70665 44.5562 2L47.3846 4.82843ZM50.213 2C49.9197 1.70665 49.5604 1.34136 49.2102 1.07417C48.8139 0.771767 48.2048 0.414214 47.3846 0.414214V4.41421C47.2036 4.41421 47.0413 4.37455 46.9168 4.32264C46.8082 4.27736 46.7594 4.23555 46.7839 4.25426C46.8094 4.27375 46.8666 4.32142 46.9768 4.42615C47.0862 4.53019 47.2127 4.6565 47.3846 4.82843L50.213 2ZM5.51597 41.0402C5.39638 41.1598 5.06248 41.4702 4.83084 41.8793L8.31161 43.8501C8.29761 43.8749 8.28315 43.8984 8.2686 43.9205C8.25411 43.9426 8.24053 43.9616 8.22862 43.9775C8.21683 43.9932 8.20709 44.0053 8.20048 44.0132C8.19717 44.0172 8.19459 44.0202 8.19288 44.0222C8.19117 44.0242 8.19024 44.0252 8.19022 44.0252C8.19021 44.0253 8.19098 44.0244 8.19269 44.0225C8.1944 44.0207 8.19689 44.018 8.2003 44.0144C8.2073 44.007 8.21698 43.997 8.23046 43.9832C8.24396 43.9694 8.25978 43.9534 8.27912 43.934C8.29858 43.9145 8.31968 43.8934 8.34438 43.8687L5.51597 41.0402ZM8.34439 43.8687C8.35286 43.8348 8.3601 43.8058 8.36686 43.7791C8.37357 43.7525 8.37914 43.7307 8.38402 43.712C8.38889 43.6934 8.39253 43.6799 8.39526 43.6701C8.3966 43.6653 8.3976 43.6618 8.3983 43.6594C8.39901 43.657 8.39935 43.6559 8.39934 43.6559C8.39933 43.6559 8.39892 43.6573 8.39811 43.6597C8.3973 43.6622 8.39605 43.666 8.39434 43.6709C8.39092 43.6806 8.38559 43.6952 8.37816 43.7134C8.37067 43.7318 8.3613 43.7532 8.34988 43.777C8.3384 43.8008 8.32564 43.8253 8.31163 43.8501L4.83082 41.8793C4.59918 42.2885 4.50483 42.7345 4.46382 42.8985L8.34439 43.8687Z" fill="#FF6644" mask="url(#path-1-outside-1_436_86)"/>
<path d="M35 9L54 28" stroke="#FF6644" stroke-width="2"/>
</svg>
