<svg width="13" height="9" viewBox="0 0 13 9" fill="none" xmlns="http://www.w3.org/2000/svg">
<path d="M6.49335 8C6.28488 8 6.08893 7.90953 5.94168 7.74521L1.22856 2.48572C1.08107 2.3214 1 2.10275 1 1.87038C1 1.63802 1.08107 1.41937 1.22856 1.25505C1.37606 1.09073 1.57177 1 1.78 1C1.98824 1 2.18419 1.09047 2.33144 1.25505L6.50021 5.90686L10.669 1.25505C10.8162 1.09073 11.0122 1 11.2204 1C11.4286 1 11.6246 1.09047 11.7718 1.25505C12.0761 1.5945 12.0761 2.14653 11.7718 2.48598L7.05874 7.74521C6.91148 7.90953 6.71554 8 6.5073 8H6.49335Z" fill="#696969" stroke="#696969" stroke-width="0.5" stroke-linejoin="round"/>
</svg>
