<svg width="47" height="47" viewBox="0 0 47 47" fill="none" xmlns="http://www.w3.org/2000/svg">
<circle cx="23.5" cy="23.5" r="23" stroke="#FF6644"/>
<path d="M22.5 8C16.5904 8 11.7867 12.8441 11.7867 18.7957V22.791C10.1386 23.5466 9 25.1509 9 27.0037C9 29.4671 11.0169 31.4958 13.5542 31.6614C13.8145 32.4377 14.5735 33.007 15.4735 33.007C16.5904 33.007 17.5012 32.1376 17.5012 31.0715V22.8117C17.5012 21.7456 16.5904 20.8761 15.4735 20.8761C14.5301 20.8761 13.7386 21.5075 13.5108 22.3459C13.2289 22.3666 12.9578 22.408 12.6976 22.4805V18.7957C12.6976 13.3202 17.0892 8.86945 22.5 8.86945C27.9108 8.86945 32.3133 13.3202 32.3133 18.7957V22.4805C32.053 22.4184 31.7711 22.3666 31.5 22.3459C31.2831 21.5075 30.4916 20.8761 29.5373 20.8761C28.4205 20.8761 27.5096 21.7456 27.5096 22.8117V31.0715C27.5096 32.1376 28.4205 33.007 29.5373 33.007C30.4373 33.007 31.1964 32.4377 31.4566 31.6614C32.3024 31.5993 33.094 31.3406 33.7663 30.9265V34.8287C33.7663 35.6775 33.4084 36.4952 32.8012 37.0748C32.0964 37.7372 30.6651 38.3169 29.3964 38.0788C28.3988 37.8925 27.6289 37.23 27.1084 36.1122C27.4446 35.8327 27.6506 35.429 27.6506 34.984C27.6506 34.1456 26.9349 33.4728 26.0675 33.4728C25.2 33.4728 24.4843 34.1559 24.4843 34.984C24.4843 35.812 25.2 36.4952 26.0675 36.4952C26.1434 36.4952 26.2084 36.4848 26.2843 36.4745C27.0867 38.1823 28.3229 38.7516 29.2229 38.9275C29.4831 38.9793 29.7434 39 30.0036 39C31.3482 39 32.6928 38.3997 33.4301 37.6958C34.2108 36.9506 34.6663 35.9155 34.6663 34.8391V30.3366C34.6663 30.3366 34.6554 30.2641 34.6446 30.2331C35.4795 29.3947 36 28.2561 36 27.014C36 25.1613 34.8614 23.5569 33.2133 22.8013V18.806C33.2133 12.8441 28.4096 8 22.5 8ZM14.3458 22.8117C14.3458 22.2217 14.8446 21.7456 15.4627 21.7456C16.0807 21.7456 16.5795 22.2217 16.5795 22.8117V31.0715C16.5795 31.6614 16.0807 32.1376 15.4627 32.1376C14.8446 32.1376 14.3458 31.6614 14.3458 31.0715V22.8117ZM13.4349 23.2154V30.7816C11.4506 30.5643 9.9 28.9496 9.9 26.9933C9.9 25.0371 11.4506 23.4224 13.4349 23.205V23.2154ZM30.6434 31.0715C30.6434 31.6614 30.1446 32.1376 29.5265 32.1376C28.9084 32.1376 28.4096 31.6614 28.4096 31.0715V22.8117C28.4096 22.2217 28.9084 21.7456 29.5265 21.7456C30.1446 21.7456 30.6434 22.2217 30.6434 22.8117V31.0715ZM26.0566 35.6154C25.6771 35.6154 25.3735 35.3255 25.3735 34.9633C25.3735 34.601 25.6771 34.3112 26.0566 34.3112C26.4361 34.3112 26.7398 34.601 26.7398 34.9633C26.7398 35.3255 26.4361 35.6154 26.0566 35.6154ZM35.0892 26.9933C35.0892 28.9496 33.5386 30.5643 31.5542 30.7816V23.2154C33.5386 23.4327 35.0892 25.0474 35.0892 27.0037V26.9933Z" fill="#FF6644"/>
</svg>
