<svg width="228" height="63" viewBox="0 0 228 63" fill="none" xmlns="http://www.w3.org/2000/svg">
<path d="M36.4137 6.84026C34.2673 7.89677 25.8118 10.406 24.5789 10.8987C21.3105 12.208 18.4083 14.2046 16.0621 16.7067C15.7396 17.0503 15.1603 16.7336 15.2946 16.2878C16.0694 13.7019 17.8991 11.5534 20.2993 10.3151L20.3081 10.3108C20.5634 10.1788 20.4963 9.80245 20.2089 9.76695C20.1943 9.76553 20.1811 9.76411 20.1665 9.76127C18.6301 9.57383 17.0295 9.58519 15.3923 9.82233C14.2411 9.98848 13.0709 10.2654 11.8949 10.6658C11.7154 10.7269 11.5388 10.7908 11.3623 10.8575C6.88866 12.5516 3.41015 16.1244 1.88247 20.5734C1.84453 20.6856 1.80805 20.7978 1.77303 20.9085C0.21179 25.7537 0.858174 30.4327 2.97534 34.2228C3.22339 34.6687 3.91209 34.5764 4.03173 34.0836C4.26665 33.1123 4.6679 32.195 5.20631 31.3529C6.38381 29.5097 8.22521 28.0286 10.4518 27.1553C11.425 26.7733 12.4727 26.5077 13.5685 26.3771C14.0762 26.3175 14.5927 26.2834 15.1195 26.2834C16.3772 26.2834 17.5854 26.4637 18.7162 26.7918C20.1038 27.195 21.3718 27.8227 22.4617 28.6279C24.8999 30.4299 26.4495 33.1095 26.4495 36.1043C26.4495 37.4647 26.127 38.7598 25.5492 39.9384C25.5127 40.0137 25.4748 40.089 25.4354 40.1628C25.18 40.6499 25.733 41.1611 26.2262 40.8984C26.537 40.7322 26.842 40.5576 27.1411 40.373C31.9415 37.4236 35.1311 32.2163 35.1311 26.2834C35.1311 24.9258 34.9633 23.6066 34.6482 22.3442C34.228 20.66 33.5451 19.0753 32.6448 17.6354C32.2231 16.9608 32.4114 16.0861 33.0738 15.6331C33.4678 15.3647 33.8544 15.0878 34.2367 14.8052C34.6671 14.4871 35.0917 14.1605 35.5076 13.824C36.9871 12.6283 38.3689 11.3219 39.6427 9.92174C39.9929 9.53691 40.3358 9.14356 40.6684 8.74453C42.5653 6.47105 44.1849 3.97179 45.4777 1.29218C45.6513 0.932914 45.1815 0.611986 44.8911 0.891733C42.4135 3.28023 39.5566 5.29526 36.4137 6.84168V6.84026Z" fill="#ED2024"/>
<path d="M16.3327 28.0758C16.5287 27.8928 16.3876 27.5658 16.1195 27.5752C7.27779 27.874 4.78787 35.9057 4.78787 35.9057V35.9104L7.89086 49.8743L10.5062 61.648C10.6269 62.1877 11.4188 62.1189 11.4439 61.5667L11.8515 52.5072L12.2247 37.5499C12.2247 33.8141 13.8052 30.4474 16.3327 28.0774V28.0758Z" fill="black"/>
<path d="M57.1515 45.6388V24.2072H74.6255V45.6388H71.1539V27.3454H60.623V45.6388H57.1515Z" fill="#231F20"/>
<path d="M80.2885 45.6388V24.2072H88.1527C89.6945 24.2072 91.0521 24.4655 92.2448 24.9917C93.4279 25.5179 94.3588 26.2738 95.0279 27.2593C95.697 28.2447 96.0364 29.4216 96.0364 30.7993C96.0364 32.9233 95.3479 34.5499 93.9612 35.6788C92.5842 36.8078 90.6158 37.3723 88.0751 37.3723H83.76V45.6388H80.2885ZM83.76 34.435H88.1236C89.52 34.435 90.6061 34.148 91.3915 33.5644C92.177 32.9808 92.5648 32.091 92.5648 30.8854C92.5648 29.6799 92.1673 28.7901 91.3721 28.1586C90.577 27.5272 89.5006 27.2114 88.1624 27.2114H83.7697V34.435H83.76Z" fill="#231F20"/>
<path d="M110.029 46.0981C108.381 46.0981 106.868 45.811 105.481 45.2465C104.095 44.6821 102.892 43.8879 101.855 42.8833C100.827 41.8691 100.022 40.6923 99.4497 39.3337C98.8776 37.9751 98.5867 36.5112 98.5867 34.923C98.5867 33.3348 98.8776 31.8518 99.4497 30.5027C100.022 29.1441 100.827 27.9577 101.855 26.9531C102.882 25.9389 104.095 25.1544 105.481 24.5994C106.868 24.0349 108.381 23.7575 110.029 23.7575C111.678 23.7575 113.161 24.0445 114.548 24.6186C115.935 25.1926 117.147 25.9868 118.175 27.0105C119.202 28.0342 120.017 29.2206 120.589 30.5697C121.161 31.9187 121.452 33.3826 121.452 34.9421C121.452 36.5017 121.161 37.9942 120.589 39.3528C120.017 40.7115 119.212 41.8979 118.175 42.9025C117.137 43.9166 115.935 44.7012 114.548 45.2657C113.161 45.8302 111.658 46.1172 110.029 46.1172V46.0981ZM110.029 42.8546C111.484 42.8546 112.802 42.5293 113.985 41.8787C115.168 41.2281 116.099 40.3 116.788 39.1136C117.476 37.9273 117.816 36.5304 117.816 34.923C117.816 33.3156 117.476 31.9283 116.788 30.7323C116.099 29.5459 115.168 28.6179 113.985 27.9673C112.802 27.3167 111.484 26.9914 110.029 26.9914C108.575 26.9914 107.236 27.3167 106.063 27.9673C104.89 28.6179 103.959 29.5459 103.261 30.7323C102.572 31.9187 102.223 33.3156 102.223 34.923C102.223 36.5304 102.572 37.9177 103.261 39.1136C103.949 40.3 104.89 41.2281 106.063 41.8787C107.236 42.5293 108.555 42.8546 110.029 42.8546Z" fill="#231F20"/>
<path d="M125.748 45.6388V24.2072H129.113L137.287 37.3436L145.152 24.2072H148.458V45.6388H145.064L145.113 30.0722L138.393 41.0176H135.852L128.899 29.8999L128.928 45.6388H125.748Z" fill="#231F20"/>
<path d="M154.102 45.6388V24.2072H168.143V27.2401H157.573V33.0286H166.698V35.8893H157.573V42.5772H168.23V45.6388H154.092H154.102Z" fill="#231F20"/>
<path d="M177.239 45.6388V27.3454H171.13V24.2072H186.829V27.3454H180.72V45.6388H177.248H177.239Z" fill="#231F20"/>
<path d="M190.485 45.6388V24.2072H204.526V27.2401H193.956V33.0286H203.081V35.8893H193.956V42.5772H204.613V45.6388H190.475H190.485Z" fill="#231F20"/>
<path d="M209.491 45.6388V24.2072H212.953V40.0322L223.813 24.2072H227.168V45.6388H223.726V29.699L212.817 45.6388H209.501H209.491Z" fill="#231F20"/>
<path d="M213.273 16.9399L216.763 23.7479L227.818 15.137L213.273 16.9399Z" fill="#ED2024"/>
</svg>
