<svg width="46" height="63" viewBox="0 0 46 63" fill="none" xmlns="http://www.w3.org/2000/svg">
<path d="M36.4137 6.84026C34.2673 7.89677 25.8118 10.406 24.5789 10.8987C21.3105 12.208 18.4083 14.2046 16.0621 16.7067C15.7396 17.0503 15.1603 16.7336 15.2946 16.2878C16.0694 13.7019 17.8991 11.5534 20.2993 10.3151L20.3081 10.3108C20.5634 10.1788 20.4963 9.80245 20.2089 9.76695C20.1943 9.76553 20.1811 9.76411 20.1665 9.76127C18.6301 9.57383 17.0295 9.58519 15.3923 9.82233C14.2411 9.98848 13.0709 10.2654 11.8949 10.6658C11.7154 10.7269 11.5388 10.7908 11.3623 10.8575C6.88866 12.5516 3.41015 16.1244 1.88247 20.5734C1.84453 20.6856 1.80805 20.7978 1.77303 20.9085C0.21179 25.7537 0.858174 30.4327 2.97534 34.2228C3.22339 34.6687 3.91209 34.5764 4.03173 34.0836C4.26665 33.1123 4.6679 32.195 5.20631 31.3529C6.38381 29.5097 8.22521 28.0286 10.4518 27.1553C11.425 26.7733 12.4727 26.5077 13.5685 26.3771C14.0762 26.3175 14.5927 26.2834 15.1195 26.2834C16.3772 26.2834 17.5854 26.4637 18.7162 26.7918C20.1038 27.195 21.3718 27.8227 22.4617 28.6279C24.8999 30.4299 26.4495 33.1095 26.4495 36.1043C26.4495 37.4647 26.127 38.7598 25.5492 39.9384C25.5127 40.0137 25.4748 40.089 25.4354 40.1628C25.18 40.6499 25.733 41.1611 26.2262 40.8984C26.537 40.7322 26.842 40.5576 27.1411 40.373C31.9415 37.4236 35.1311 32.2163 35.1311 26.2834C35.1311 24.9258 34.9633 23.6066 34.6482 22.3442C34.228 20.66 33.5451 19.0753 32.6448 17.6354C32.2231 16.9608 32.4114 16.0861 33.0738 15.6331C33.4678 15.3647 33.8544 15.0878 34.2367 14.8052C34.6671 14.4871 35.0917 14.1605 35.5076 13.824C36.9871 12.6283 38.3689 11.3219 39.6427 9.92174C39.9929 9.53691 40.3358 9.14356 40.6684 8.74453C42.5653 6.47105 44.1849 3.97179 45.4777 1.29218C45.6513 0.932914 45.1815 0.611986 44.8911 0.891733C42.4135 3.28023 39.5566 5.29526 36.4137 6.84168V6.84026Z" fill="#ED2024"/>
<path d="M16.3327 28.0758C16.5287 27.8928 16.3876 27.5658 16.1195 27.5752C7.27779 27.874 4.78787 35.9057 4.78787 35.9057V35.9104L7.89086 49.8743L10.5062 61.648C10.6269 62.1877 11.4188 62.1189 11.4439 61.5667L11.8515 52.5072L12.2247 37.5499C12.2247 33.8141 13.8052 30.4474 16.3327 28.0774V28.0758Z" fill="black"/>
</svg>
