<svg width="58" height="61" viewBox="0 0 58 61" fill="none" xmlns="http://www.w3.org/2000/svg">
<path d="M54.6406 7.25661C57 10.8074 57 15.7503 57 25.6362C57 35.5221 57 40.4651 54.6406 44.0158C53.6192 45.553 52.3066 46.8728 50.778 47.8999C47.6933 49.9725 43.552 50.2345 36 50.2677V50.2724L32.1305 58.0545C30.8407 60.6485 27.1593 60.6485 25.8695 58.0545L22 50.2724V50.2677C14.448 50.2345 10.3067 49.9725 7.22202 47.8999C5.69335 46.8728 4.38084 45.553 3.35943 44.0158C1 40.4651 1 35.5221 1 25.6362C1 15.7503 1 10.8074 3.35943 7.25661C4.38084 5.71945 5.69335 4.39964 7.22202 3.37254C10.7531 1 15.6688 1 25.5 1H32.5C42.3312 1 47.2469 1 50.778 3.37254C52.3066 4.39964 53.6192 5.71945 54.6406 7.25661Z" stroke="#FF6644" stroke-width="2" stroke-linecap="round" stroke-linejoin="round"/>
<path d="M20 19L41 19" stroke="#FF6644" stroke-width="2" stroke-linecap="round" stroke-linejoin="round"/>
<path d="M20 33H30" stroke="#FF6644" stroke-width="2" stroke-linecap="round" stroke-linejoin="round"/>
</svg>
