<svg width="110" height="110" viewBox="0 0 110 110" fill="none" xmlns="http://www.w3.org/2000/svg">
<circle cx="55" cy="55" r="54" stroke="#FF6644" stroke-width="2"/>
<path d="M25 28H33.297C33.998 28 34.3484 28 34.6113 28.191C34.8741 28.3819 34.9824 28.7152 35.1991 29.3818L38 38" stroke="#FF6644" stroke-width="2" stroke-linecap="round"/>
<path d="M74 74H37.8311C36.5421 74 35.8976 74 35.5988 73.577C35.3 73.154 35.5153 72.5465 35.946 71.3317L37.6012 66.6633C38.0574 65.3764 38.2856 64.733 38.8044 64.3665C39.3232 64 40.0059 64 41.3712 64H63.3636" stroke="#FF6644" stroke-width="2" stroke-linecap="round" stroke-linejoin="round"/>
<path d="M67.7333 64H45.1081C43.7965 64 43.1407 64 42.6328 63.6561C42.1249 63.3123 41.8813 62.7034 41.3942 61.4856L33.6457 42.1142C32.9001 40.2501 32.5272 39.3181 32.9734 38.6591C33.4197 38 34.4235 38 36.4311 38H79C81.2329 38 82.3493 38 82.7862 38.7283C83.2232 39.4565 82.6978 40.4416 81.6471 42.4118L71.2627 61.8824C70.7125 62.9141 70.4373 63.43 69.9623 63.715C69.4873 64 68.9026 64 67.7333 64Z" stroke="#FF6644" stroke-width="2" stroke-linecap="round"/>
<ellipse cx="73" cy="82.5" rx="3" ry="3.5" stroke="#FF6644" stroke-width="2" stroke-linecap="round"/>
<ellipse cx="44" cy="82.5" rx="3" ry="3.5" stroke="#FF6644" stroke-width="2" stroke-linecap="round"/>
</svg>
