<svg width="110" height="110" viewBox="0 0 110 110" fill="none" xmlns="http://www.w3.org/2000/svg">
<circle cx="55" cy="55" r="54" stroke="#FF6644" stroke-width="2"/>
<mask id="path-2-outside-1_437_395" maskUnits="userSpaceOnUse" x="28" y="25" width="58" height="58" fill="black">
<rect fill="white" x="28" y="25" width="58" height="58"/>
<path d="M70.1242 28.4142L34.5456 63.9929L34.5455 63.9929C34.3509 64.1876 34.2536 64.2849 34.1866 64.4032C34.1196 64.5215 34.0863 64.655 34.0195 64.922L30.2021 80.1916C30.1119 80.5526 30.0667 80.7331 30.1668 80.8332C30.2669 80.9333 30.4474 80.8881 30.8084 80.7979L30.8085 80.7979L46.078 76.9805C46.345 76.9137 46.4785 76.8804 46.5968 76.8134C46.7151 76.7464 46.8124 76.6491 47.0071 76.4544L82.5858 40.8758L82.5858 40.8757C83.2525 40.2091 83.5858 39.8757 83.5858 39.4615C83.5858 39.0473 83.2525 38.714 82.5858 38.0473L72.9527 28.4142C72.286 27.7475 71.9527 27.4142 71.5385 27.4142C71.1242 27.4142 70.7909 27.7475 70.1242 28.4142Z"/>
</mask>
<path d="M34.5456 63.9929L33.1313 62.5787L33.0584 62.6516L32.9933 62.7317L34.5456 63.9929ZM70.1242 28.4142L68.71 27L68.71 27L70.1242 28.4142ZM72.9527 28.4142L71.5385 29.8284V29.8284L72.9527 28.4142ZM82.5858 38.0473L84 36.6331V36.6331L82.5858 38.0473ZM82.5858 40.8758L81.2688 39.3706L81.2187 39.4145L81.1716 39.4615L82.5858 40.8758ZM47.0071 76.4544L45.5929 75.0402L45.5929 75.0402L47.0071 76.4544ZM34.0195 64.922L32.0792 64.437V64.437L34.0195 64.922ZM30.2021 80.1916L32.1424 80.6766L32.1424 80.6766L30.2021 80.1916ZM30.8085 80.7979L30.3234 78.8576L30.2379 78.879L30.1546 78.9078L30.8085 80.7979ZM46.078 76.9805L45.5929 75.0402L46.078 76.9805ZM30.1668 80.8332L28.7526 82.2474L28.7526 82.2474L30.1668 80.8332ZM30.8084 80.7979L31.2934 82.7382L31.379 82.7168L31.4623 82.688L30.8084 80.7979ZM46.5968 76.8134L47.5822 78.5538L47.5822 78.5538L46.5968 76.8134ZM82.5858 40.8757L83.9028 42.3809L83.9529 42.337L84 42.2899L82.5858 40.8757ZM34.5455 63.9929L35.9597 65.4071L36.0327 65.3342L36.0978 65.2541L34.5455 63.9929ZM34.1866 64.4032L32.4462 63.4178L32.4462 63.4178L34.1866 64.4032ZM35.9598 65.4071L71.5385 29.8284L68.71 27L33.1313 62.5787L35.9598 65.4071ZM71.5385 29.8284L81.1716 39.4615L84 36.6331L74.3669 27L71.5385 29.8284ZM81.1716 39.4615L45.5929 75.0402L48.4213 77.8687L84 42.29L81.1716 39.4615ZM32.0792 64.437L28.2618 79.7065L32.1424 80.6766L35.9598 65.4071L32.0792 64.437ZM31.2935 82.7382L46.563 78.9208L45.5929 75.0402L30.3234 78.8576L31.2935 82.7382ZM28.2618 79.7065C28.233 79.8218 28.1506 80.1296 28.1226 80.4155C28.0922 80.7261 28.0651 81.5599 28.7526 82.2474L31.581 79.419C31.8467 79.6847 31.9991 80.0005 32.0664 80.2928C32.1251 80.5478 32.1097 80.7429 32.1036 80.8049C32.097 80.8724 32.0879 80.9041 32.097 80.8631C32.1054 80.8253 32.1179 80.7747 32.1424 80.6766L28.2618 79.7065ZM30.1546 78.9078L30.1545 78.9078L31.4623 82.688L31.4623 82.688L30.1546 78.9078ZM30.3234 78.8576C30.2253 78.8821 30.1747 78.8946 30.1369 78.903C30.096 78.9121 30.1276 78.903 30.1951 78.8964C30.2571 78.8903 30.4522 78.8749 30.7072 78.9336C30.9995 79.0009 31.3153 79.1533 31.581 79.419L28.7526 82.2474C29.4401 82.9349 30.2739 82.9078 30.5845 82.8774C30.8704 82.8495 31.1782 82.767 31.2934 82.7382L30.3234 78.8576ZM45.5929 75.0402C45.5682 75.0649 45.5471 75.086 45.5275 75.1055C45.5081 75.1248 45.4921 75.1407 45.4783 75.1542C45.4645 75.1676 45.4545 75.1773 45.4471 75.1843C45.4435 75.1877 45.4408 75.1902 45.439 75.1919C45.4371 75.1936 45.4363 75.1944 45.4363 75.1944C45.4363 75.1944 45.4374 75.1934 45.4393 75.1917C45.4413 75.19 45.4443 75.1874 45.4483 75.1841C45.4562 75.1775 45.4683 75.1678 45.484 75.156C45.4999 75.1441 45.519 75.1305 45.541 75.116C45.5631 75.1015 45.5867 75.087 45.6114 75.073L47.5822 78.5538C47.9914 78.3221 48.3017 77.9882 48.4213 77.8686L45.5929 75.0402ZM46.563 78.9208C46.7271 78.8798 47.1731 78.7854 47.5822 78.5538L45.6115 75.073C45.6362 75.059 45.6607 75.0462 45.6846 75.0347C45.7083 75.0233 45.7298 75.0139 45.7482 75.0064C45.7664 74.999 45.7809 74.9937 45.7907 74.9903C45.7956 74.9886 45.7993 74.9873 45.8018 74.9865C45.8043 74.9857 45.8056 74.9853 45.8057 74.9853C45.8057 74.9853 45.8046 74.9856 45.8022 74.9863C45.7997 74.987 45.7962 74.988 45.7915 74.9894C45.7816 74.9921 45.7682 74.9957 45.7495 75.0006C45.7309 75.0055 45.7091 75.011 45.6825 75.0178C45.6557 75.0245 45.6268 75.0317 45.5929 75.0402L46.563 78.9208ZM81.1716 39.4615C81.3435 39.6335 81.4698 39.76 81.5738 39.8694C81.6786 39.9795 81.7263 40.0367 81.7457 40.0623C81.7645 40.0868 81.7226 40.0379 81.6774 39.9294C81.6255 39.8049 81.5858 39.6426 81.5858 39.4615H85.5858C85.5858 38.6413 85.2282 38.0323 84.9258 37.6359C84.6586 37.2857 84.2934 36.9265 84 36.6331L81.1716 39.4615ZM83.9028 42.3809L83.9028 42.3809L81.2688 39.3706L81.2688 39.3706L83.9028 42.3809ZM84 42.2899C84.2934 41.9966 84.6587 41.6373 84.9258 41.2871C85.2282 40.8908 85.5858 40.2818 85.5858 39.4615H81.5858C81.5858 39.2805 81.6254 39.1182 81.6774 38.9937C81.7226 38.8852 81.7645 38.8363 81.7457 38.8608C81.7263 38.8864 81.6786 38.9435 81.5739 39.0537C81.4698 39.1631 81.3435 39.2896 81.1716 39.4615L84 42.2899ZM71.5385 29.8284C71.7104 29.6565 71.8369 29.5302 71.9463 29.4262C72.0565 29.3214 72.1136 29.2737 72.1392 29.2543C72.1637 29.2356 72.1148 29.2774 72.0063 29.3226C71.8818 29.3746 71.7195 29.4142 71.5385 29.4142V25.4142C70.7182 25.4142 70.1092 25.7718 69.7129 26.0742C69.3627 26.3414 69.0034 26.7066 68.71 27L71.5385 29.8284ZM74.3669 27C74.0735 26.7066 73.7143 26.3414 73.3641 26.0742C72.9677 25.7718 72.3587 25.4142 71.5385 25.4142V29.4142C71.3574 29.4142 71.1951 29.3746 71.0706 29.3226C70.9621 29.2774 70.9132 29.2356 70.9377 29.2543C70.9633 29.2737 71.0205 29.3214 71.1306 29.4262C71.24 29.5302 71.3665 29.6565 71.5385 29.8284L74.3669 27ZM32.9933 62.7317L32.9933 62.7317L36.0978 65.2541L36.0978 65.2541L32.9933 62.7317ZM33.1313 62.5787C33.0118 62.6983 32.6779 63.0086 32.4462 63.4178L35.927 65.3886C35.913 65.4133 35.8986 65.4369 35.884 65.459C35.8695 65.481 35.8559 65.5001 35.844 65.516C35.8322 65.5317 35.8225 65.5438 35.8159 65.5517C35.8126 65.5557 35.81 65.5587 35.8083 65.5607C35.8066 65.5626 35.8056 65.5637 35.8056 65.5637C35.8056 65.5637 35.8064 65.5629 35.8081 65.561C35.8098 65.5592 35.8123 65.5565 35.8157 65.5529C35.8227 65.5455 35.8324 65.5355 35.8458 65.5217C35.8593 65.5079 35.8752 65.4919 35.8945 65.4725C35.914 65.4529 35.935 65.4319 35.9597 65.4071L33.1313 62.5787ZM35.9598 65.4071C35.9682 65.3732 35.9755 65.3443 35.9822 65.3175C35.989 65.2909 35.9945 65.2691 35.9994 65.2505C36.0043 65.2318 36.0079 65.2184 36.0106 65.2086C36.012 65.2038 36.013 65.2003 36.0137 65.1979C36.0144 65.1954 36.0147 65.1943 36.0147 65.1944C36.0147 65.1944 36.0143 65.1957 36.0135 65.1982C36.0127 65.2007 36.0114 65.2044 36.0097 65.2093C36.0063 65.2191 36.001 65.2336 35.9935 65.2519C35.986 65.2702 35.9767 65.2917 35.9653 65.3154C35.9538 65.3393 35.941 65.3638 35.927 65.3886L32.4462 63.4178C32.2146 63.8269 32.1202 64.2729 32.0792 64.437L35.9598 65.4071Z" fill="#FF6644" mask="url(#path-2-outside-1_437_395)"/>
<path d="M61 34L77 51" stroke="#FF6644" stroke-width="2"/>
</svg>
