<svg width="110" height="110" viewBox="0 0 110 110" fill="none" xmlns="http://www.w3.org/2000/svg">
<path d="M65.5 83.5H44.5M27 61.8007V42.2007C27 38.2803 27 36.3187 27.763 34.8213C28.4341 33.5042 29.5042 32.4341 30.8213 31.763C32.3187 31 34.2803 31 38.2007 31H71.8007C75.7211 31 77.6785 31 79.1759 31.763C80.493 32.4341 81.5667 33.5042 82.2378 34.8213C83 36.3172 83 38.2765 83 42.1892V61.8108C83 65.7235 83 67.68 82.2378 69.1759C81.5667 70.493 80.493 71.5667 79.1759 72.2378C77.68 73 75.7235 73 71.8108 73H38.1892C34.2765 73 32.3172 73 30.8213 72.2378C29.5042 71.5667 28.4341 70.493 27.763 69.1759C27 67.6785 27 65.7211 27 61.8007ZM63.75 52L48 41.5V62.5L63.75 52Z" stroke="#FF6644" stroke-width="2" stroke-linecap="round" stroke-linejoin="round"/>
<circle cx="55" cy="55" r="54" stroke="#FF6644" stroke-width="2"/>
</svg>
