<svg width="110" height="110" viewBox="0 0 110 110" fill="none" xmlns="http://www.w3.org/2000/svg">
<circle cx="55" cy="55" r="54" stroke="#FF6644" stroke-width="2"/>
<path d="M32 86V74H43" stroke="#FF6644" stroke-width="2" stroke-linecap="round" stroke-linejoin="round"/>
<path d="M85.4742 49C88.3947 64.9034 78.8908 80.6697 63.3738 84.9275C51.4977 88.186 39.3802 83.8027 32 74.7211" stroke="#FF6644" stroke-width="2" stroke-linecap="round" stroke-linejoin="round"/>
<path d="M25.516 61C22.6496 45.5264 31.9779 30.1861 47.2078 26.0436C58.8635 22.8733 70.7561 27.1373 78 35.9723" stroke="#FF6644" stroke-width="2" stroke-linecap="round" stroke-linejoin="round"/>
<path d="M78 25V36H67" stroke="#FF6644" stroke-width="2" stroke-linecap="round" stroke-linejoin="round"/>
<path d="M41.244 56.9539C39.5853 56.6703 39.5853 54.3297 41.244 54.0461C47.2531 53.0185 52.0324 48.5195 53.3367 42.6629L53.4367 42.2139C53.7955 40.6026 56.1297 40.5926 56.5028 42.2007L56.6242 42.7239C57.9768 48.553 62.7574 53.0139 68.7498 54.0387C70.4167 54.3238 70.4167 56.6762 68.7498 56.9613C62.7574 57.986 57.9768 62.447 56.6242 68.276L56.5028 68.7992C56.1297 70.4075 53.7955 70.3973 53.4367 68.7861L53.3367 68.3371C52.0324 62.4804 47.2531 57.9815 41.244 56.9539Z" stroke="#FF6644" stroke-width="2" stroke-linecap="round" stroke-linejoin="round"/>
</svg>
