<svg width="110" height="110" viewBox="0 0 110 110" fill="none" xmlns="http://www.w3.org/2000/svg">
<circle cx="55" cy="55" r="54" stroke="#FF6644" stroke-width="2"/>
<path d="M66.3973 47.3178L56.9614 58.6536C55.0216 60.984 54.0517 62.1493 52.7757 62.1493C51.4997 62.1493 50.5297 60.984 48.5899 58.6536L44.6027 53.8636M38.0501 36.46C42.2667 37.5181 46.5613 35.0358 47.7543 30.851C49.9782 23.0497 61.0218 23.0497 63.2457 30.851C64.4387 35.0358 68.7333 37.5181 72.9499 36.46C80.8104 34.4874 86.3322 44.0622 80.6955 49.891C77.6719 53.0177 77.6719 57.9823 80.6955 61.109C86.3322 66.9378 80.8104 76.5126 72.9499 74.54C68.7333 73.4819 64.4387 75.9642 63.2457 80.149C61.0218 87.9503 49.9782 87.9503 47.7543 80.149C46.5613 75.9642 42.2667 73.4819 38.0501 74.54C30.1896 76.5126 24.6678 66.9378 30.3045 61.109C33.3281 57.9823 33.3281 53.0177 30.3045 49.891C24.6678 44.0622 30.1896 34.4874 38.0501 36.46Z" stroke="#FF4515" stroke-width="2" stroke-linecap="round"/>
</svg>
