<svg width="110" height="110" viewBox="0 0 110 110" fill="none" xmlns="http://www.w3.org/2000/svg">
<circle cx="55" cy="55" r="54" stroke="#FF6644" stroke-width="2"/>
<path fill-rule="evenodd" clip-rule="evenodd" d="M61.9801 25.801C61.8945 24.9451 61.8517 24.5171 61.566 24.2585C61.2803 24 60.8502 24 59.99 24H51.01C50.1498 24 49.7197 24 49.434 24.2585C49.1483 24.5171 49.1055 24.9451 49.0199 25.801L48.2589 33.4113C48.0955 35.0448 48.0138 35.8616 47.461 36.0906C46.9082 36.3196 46.2729 35.7998 45.0023 34.7602L39.0818 29.9161C38.416 29.3714 38.0831 29.099 37.6983 29.1182C37.3135 29.1374 37.0093 29.4415 36.4011 30.0498L30.0512 36.3997C29.443 37.0079 29.1388 37.312 29.1197 37.6969C29.1005 38.0817 29.3728 38.4146 29.9175 39.0803L34.7626 45.0021C35.8022 46.2727 36.3219 46.908 36.093 47.4608C35.864 48.0136 35.0472 48.0953 33.4137 48.2586L25.801 49.0199C24.9451 49.1055 24.5171 49.1483 24.2585 49.434C24 49.7197 24 50.1498 24 51.01L24 59.99C24 60.8502 24 61.2803 24.2585 61.566C24.5171 61.8517 24.9451 61.8945 25.801 61.9801L33.4125 62.7412C35.046 62.9046 35.8628 62.9863 36.0918 63.5391C36.3208 64.0919 35.801 64.7272 34.7614 65.9978L29.9174 71.9183C29.3727 72.584 29.1003 72.9169 29.1195 73.3017C29.1387 73.6866 29.4428 73.9907 30.0511 74.599L36.4009 80.9488C37.0092 81.5571 37.3133 81.8612 37.6982 81.8804C38.083 81.8996 38.4159 81.6272 39.0816 81.0825L45.0022 76.2384C46.2728 75.1988 46.9081 74.6791 47.4609 74.908C48.0137 75.137 48.0954 75.9538 48.2587 77.5873L49.0199 85.199C49.1055 86.0549 49.1483 86.4829 49.434 86.7415C49.7197 87 50.1498 87 51.01 87H59.99C60.8502 87 61.2803 87 61.566 86.7415C61.8517 86.4829 61.8945 86.0549 61.9801 85.199L62.7414 77.5861C62.9047 75.9525 62.9864 75.1358 63.5392 74.9068C64.0921 74.6778 64.7274 75.1976 65.9979 76.2372L71.9183 81.0811C72.584 81.6258 72.9169 81.8981 73.3017 81.879C73.6866 81.8598 73.9907 81.5556 74.599 80.9474L80.9488 74.5975C81.5571 73.9893 81.8612 73.6851 81.8804 73.3003C81.8996 72.9155 81.6272 72.5826 81.0825 71.9168L76.2396 65.9977C75.2 64.7271 74.6802 64.0918 74.9092 63.539C75.1382 62.9862 75.9549 62.9045 77.5885 62.7411L85.199 61.9801C86.0549 61.8945 86.4829 61.8517 86.7415 61.566C87 61.2803 87 60.8502 87 59.99V51.01C87 50.1498 87 49.7197 86.7415 49.434C86.4829 49.1483 86.0549 49.1055 85.199 49.0199L77.5873 48.2587C75.9538 48.0954 75.137 48.0137 74.908 47.4609C74.679 46.9081 75.1988 46.2728 76.2384 45.0022L81.0824 39.0818C81.6271 38.416 81.8994 38.0831 81.8802 37.6983C81.861 37.3135 81.5569 37.0093 80.9487 36.4011L74.5988 30.0512C73.9906 29.443 73.6864 29.1388 73.3016 29.1197C72.9168 29.1005 72.5839 29.3728 71.9181 29.9175L65.9978 34.7614C64.7272 35.801 64.0919 36.3208 63.5391 36.0918C62.9863 35.8628 62.9046 35.0461 62.7413 33.4125L61.9801 25.801Z" fill="white"/>
<path d="M65.9978 34.7614L65.3646 33.9875L65.9978 34.7614ZM62.7413 33.4125L63.7363 33.313L62.7413 33.4125ZM63.5391 36.0918L63.1564 37.0157L63.5391 36.0918ZM74.5988 30.0512L73.8917 30.7583L74.5988 30.0512ZM71.9181 29.9175L71.2849 29.1436L71.9181 29.9175ZM73.3016 29.1197L73.2518 30.1184L73.3016 29.1197ZM80.9487 36.4011L80.2416 37.1082L80.9487 36.4011ZM81.8802 37.6983L80.8815 37.7481L81.8802 37.6983ZM74.908 47.4609L75.8319 47.0782L74.908 47.4609ZM85.199 49.0199L85.2985 48.0249L85.199 49.0199ZM86.7415 49.434L87.4829 48.763L86.7415 49.434ZM85.199 61.9801L85.0995 60.9851L85.199 61.9801ZM86.7415 61.566L86 60.895L86.7415 61.566ZM77.5885 62.7411L77.688 63.7362L77.5885 62.7411ZM74.9092 63.539L73.9853 63.1563L74.9092 63.539ZM81.0825 71.9168L80.3086 72.5501L81.0825 71.9168ZM81.8804 73.3003L80.8816 73.2505L81.8804 73.3003ZM71.9183 81.0811L71.285 81.855L71.9183 81.0811ZM73.3017 81.879L73.3516 82.8777L73.3017 81.879ZM62.7414 77.5861L61.7464 77.4866L62.7414 77.5861ZM65.9979 76.2372L66.6312 75.4632L65.9979 76.2372ZM63.5392 74.9068L63.1566 73.9829L63.5392 74.9068ZM61.9801 85.199L60.9851 85.0995L61.9801 85.199ZM61.566 86.7415L62.237 87.4829L61.566 86.7415ZM49.434 86.7415L48.763 87.4829L49.434 86.7415ZM45.0022 76.2384L44.3689 75.4645L45.0022 76.2384ZM48.2587 77.5873L47.2637 77.6868L48.2587 77.5873ZM47.4609 74.908L47.0782 75.8319L47.4609 74.908ZM36.4009 80.9488L37.108 80.2417L36.4009 80.9488ZM39.0816 81.0825L38.4484 80.3086L39.0816 81.0825ZM37.6982 81.8804L37.6483 82.8791L37.6982 81.8804ZM29.9174 71.9183L30.6913 72.5515L29.9174 71.9183ZM30.0511 74.599L29.344 75.3061L30.0511 74.599ZM29.1195 73.3017L30.1183 73.2519L29.1195 73.3017ZM33.4125 62.7412L33.313 63.7363L33.4125 62.7412ZM34.7614 65.9978L35.5354 66.631L34.7614 65.9978ZM36.0918 63.5391L37.0157 63.1564L36.0918 63.5391ZM24.2585 61.566L23.5171 62.237L24.2585 61.566ZM25.801 49.0199L25.7015 48.0249L25.801 49.0199ZM24.2585 49.434L25 50.105L24.2585 49.434ZM34.7626 45.0021L35.5365 44.3688L34.7626 45.0021ZM36.093 47.4608L35.1691 47.0781L36.093 47.4608ZM29.1197 37.6969L28.1209 37.6471L29.1197 37.6969ZM37.6983 29.1182L37.7481 30.117L37.6983 29.1182ZM48.2589 33.4113L47.2638 33.3118L48.2589 33.4113ZM45.0023 34.7602L44.3691 35.5341L45.0023 34.7602ZM47.461 36.0906L47.8437 37.0144L47.461 36.0906ZM61.9801 25.801L60.9851 25.9005L61.9801 25.801ZM61.566 24.2585L62.237 23.5171L61.566 24.2585ZM49.0199 25.801L48.0249 25.7015L49.0199 25.801ZM49.434 24.2585L50.105 25L49.434 24.2585ZM51.01 25H59.99V23H51.01V25ZM49.2539 33.5108L50.0149 25.9005L48.0249 25.7015L47.2638 33.3118L49.2539 33.5108ZM38.4485 30.6901L44.3691 35.5341L45.6356 33.9862L39.715 29.1421L38.4485 30.6901ZM30.7583 37.1068L37.1082 30.7569L35.694 29.3427L29.3441 35.6925L30.7583 37.1068ZM35.5365 44.3688L30.6915 38.4471L29.1436 39.7136L33.9886 45.6353L35.5365 44.3688ZM25.9005 50.0149L33.5132 49.2537L33.3142 47.2636L25.7015 48.0249L25.9005 50.0149ZM25 59.99L25 51.01H23L23 59.99H25ZM33.512 61.7462L25.9005 60.9851L25.7015 62.9751L33.313 63.7363L33.512 61.7462ZM30.6913 72.5515L35.5354 66.631L33.9874 65.3646L29.1434 71.285L30.6913 72.5515ZM37.108 80.2417L30.7582 73.8918L29.344 75.3061L35.6938 81.6559L37.108 80.2417ZM44.3689 75.4645L38.4484 80.3086L39.7149 81.8565L45.6354 77.0124L44.3689 75.4645ZM50.0149 85.0995L49.2538 77.4878L47.2637 77.6868L48.0249 85.2985L50.0149 85.0995ZM59.99 86H51.01V88H59.99V86ZM61.7464 77.4866L60.9851 85.0995L62.9751 85.2985L63.7364 77.6856L61.7464 77.4866ZM72.5515 80.3071L66.6312 75.4632L65.3647 77.0111L71.285 81.855L72.5515 80.3071ZM80.2417 73.8904L73.8918 80.2403L75.3061 81.6545L81.6559 75.3046L80.2417 73.8904ZM75.4656 66.6309L80.3086 72.5501L81.8565 71.2836L77.0135 65.3645L75.4656 66.6309ZM85.0995 60.9851L77.489 61.7461L77.688 63.7362L85.2985 62.9751L85.0995 60.9851ZM86 51.01V59.99H88V51.01H86ZM77.4878 49.2538L85.0995 50.0149L85.2985 48.0249L77.6868 47.2637L77.4878 49.2538ZM80.3084 38.4485L75.4644 44.3689L77.0124 45.6354L81.8563 39.715L80.3084 38.4485ZM73.8917 30.7583L80.2416 37.1082L81.6558 35.694L75.3059 29.3441L73.8917 30.7583ZM66.631 35.5354L72.5514 30.6915L71.2849 29.1436L65.3646 33.9875L66.631 35.5354ZM60.9851 25.9005L61.7462 33.512L63.7363 33.313L62.9751 25.7015L60.9851 25.9005ZM65.3646 33.9875C64.703 34.5288 64.2941 34.8599 63.9861 35.0441C63.6793 35.2275 63.7479 35.0959 63.9218 35.1679L63.1564 37.0157C63.8831 37.3167 64.5458 37.0397 65.0125 36.7606C65.478 36.4822 66.022 36.0337 66.631 35.5354L65.3646 33.9875ZM61.7462 33.512C61.8245 34.295 61.892 34.9969 62.0243 35.5228C62.157 36.0502 62.4297 36.7147 63.1564 37.0157L63.9218 35.1679C64.0957 35.24 64.0511 35.3816 63.9639 35.0349C63.8763 34.6868 63.8213 34.1636 63.7363 33.313L61.7462 33.512ZM75.3059 29.3441C75.0207 29.0589 74.7403 28.7758 74.4773 28.5728C74.1917 28.3525 73.8262 28.1446 73.3514 28.1209L73.2518 30.1184C73.1619 30.1139 73.1408 30.0677 73.2555 30.1562C73.3928 30.2622 73.5687 30.4353 73.8917 30.7583L75.3059 29.3441ZM72.5514 30.6915C72.9049 30.4022 73.0971 30.2475 73.2443 30.1557C73.3673 30.079 73.3417 30.1229 73.2518 30.1184L73.3514 28.1209C72.8767 28.0972 72.4922 28.2677 72.1861 28.4586C71.9042 28.6343 71.5971 28.8881 71.2849 29.1436L72.5514 30.6915ZM81.8563 39.715C82.1117 39.4028 82.3655 39.0957 82.5413 38.8138C82.7322 38.5077 82.9027 38.1232 82.879 37.6485L80.8815 37.7481C80.877 37.6582 80.9209 37.6326 80.8442 37.7556C80.7524 37.9028 80.5977 38.095 80.3084 38.4485L81.8563 39.715ZM80.2416 37.1082C80.5646 37.4312 80.7377 37.6071 80.8437 37.7444C80.9322 37.8591 80.886 37.838 80.8815 37.7481L82.879 37.6485C82.8553 37.1737 82.6474 36.8082 82.427 36.5225C82.2241 36.2595 81.941 35.9792 81.6558 35.694L80.2416 37.1082ZM77.6868 47.2637C76.8362 47.1786 76.313 47.1236 75.9649 47.0361C75.6183 46.9489 75.7599 46.9043 75.8319 47.0782L73.9841 47.8436C74.2851 48.5703 74.9496 48.843 75.477 48.9756C76.0029 49.1079 76.7048 49.1755 77.4878 49.2538L77.6868 47.2637ZM75.4644 44.3689C74.9662 44.9779 74.5176 45.522 74.2392 45.9875C73.9602 46.4542 73.6831 47.1169 73.9841 47.8436L75.8319 47.0782C75.9039 47.2521 75.7723 47.3207 75.9557 47.0139C76.14 46.7059 76.4711 46.297 77.0124 45.6354L75.4644 44.3689ZM88 51.01C88 50.6066 88.0019 50.2082 87.9595 49.8787C87.9134 49.5209 87.8019 49.1154 87.4829 48.763L86 50.105C85.9396 50.0382 85.9574 49.9906 85.9759 50.1344C85.9981 50.3064 86 50.5531 86 51.01H88ZM85.0995 50.0149C85.5541 50.0604 85.7994 50.0869 85.9684 50.1261C86.1095 50.1588 86.0604 50.1717 86 50.105L87.4829 48.763C87.1639 48.4105 86.7716 48.2592 86.4201 48.1777C86.0965 48.1027 85.6999 48.065 85.2985 48.0249L85.0995 50.0149ZM85.2985 62.9751C85.6999 62.935 86.0965 62.8973 86.4201 62.8223C86.7716 62.7408 87.1639 62.5895 87.4829 62.237L86 60.895C86.0604 60.8283 86.1095 60.8412 85.9684 60.8739C85.7994 60.9131 85.5541 60.9396 85.0995 60.9851L85.2985 62.9751ZM86 59.99C86 60.4469 85.9981 60.6936 85.9759 60.8656C85.9574 61.0094 85.9396 60.9618 86 60.895L87.4829 62.237C87.8019 61.8846 87.9134 61.4791 87.9595 61.1213C88.0019 60.7918 88 60.3934 88 59.99H86ZM77.0135 65.3645C76.4722 64.7029 76.1411 64.294 75.9569 63.986C75.7735 63.6792 75.9051 63.7478 75.8331 63.9217L73.9853 63.1563C73.6843 63.883 73.9613 64.5457 74.2404 65.0124C74.5188 65.4779 74.9673 66.0219 75.4656 66.6309L77.0135 65.3645ZM77.489 61.7461C76.706 61.8244 76.0041 61.8919 75.4782 62.0242C74.9508 62.1569 74.2863 62.4296 73.9853 63.1563L75.8331 63.9217C75.7611 64.0956 75.6194 64.051 75.9661 63.9638C76.3142 63.8762 76.8374 63.8212 77.688 63.7362L77.489 61.7461ZM81.6559 75.3046C81.9411 75.0194 82.2242 74.7391 82.4272 74.4761C82.6476 74.1904 82.8555 73.8249 82.8791 73.3501L80.8816 73.2505C80.8861 73.1606 80.9323 73.1395 80.8438 73.2542C80.7378 73.3915 80.5647 73.5674 80.2417 73.8904L81.6559 75.3046ZM80.3086 72.5501C80.5978 72.9036 80.7526 73.0958 80.8444 73.243C80.921 73.366 80.8771 73.3404 80.8816 73.2505L82.8791 73.3501C82.9028 72.8754 82.7323 72.4909 82.5415 72.1848C82.3657 71.9029 82.1119 71.5958 81.8565 71.2836L80.3086 72.5501ZM71.285 81.855C71.5972 82.1105 71.9043 82.3643 72.1862 82.54C72.4924 82.7309 72.8768 82.9014 73.3516 82.8777L73.2519 80.8802C73.3418 80.8757 73.3674 80.9196 73.2445 80.8429C73.0973 80.7512 72.9051 80.5964 72.5515 80.3071L71.285 81.855ZM73.8918 80.2403C73.5688 80.5633 73.393 80.7364 73.2556 80.8424C73.1409 80.9309 73.162 80.8847 73.2519 80.8802L73.3516 82.8777C73.8263 82.854 74.1919 82.6462 74.4775 82.4258C74.7405 82.2228 75.0208 81.9397 75.3061 81.6545L73.8918 80.2403ZM63.7364 77.6856C63.8215 76.835 63.8765 76.3118 63.9641 75.9637C64.0513 75.617 64.0958 75.7586 63.9219 75.8307L63.1566 73.9829C62.4299 74.2839 62.1572 74.9484 62.0245 75.4758C61.8922 76.0017 61.8247 76.7036 61.7464 77.4866L63.7364 77.6856ZM66.6312 75.4632C66.0222 74.9649 65.4781 74.5164 65.0126 74.238C64.5459 73.9589 63.8833 73.6819 63.1566 73.9829L63.9219 75.8307C63.748 75.9027 63.6794 75.7711 63.9862 75.9545C64.2943 76.1387 64.7031 76.4698 65.3647 77.0111L66.6312 75.4632ZM59.99 88C60.3934 88 60.7918 88.0019 61.1213 87.9595C61.4791 87.9134 61.8846 87.8019 62.237 87.4829L60.895 86C60.9618 85.9396 61.0094 85.9574 60.8656 85.9759C60.6936 85.9981 60.4469 86 59.99 86V88ZM60.9851 85.0995C60.9396 85.5541 60.9131 85.7994 60.8739 85.9684C60.8412 86.1095 60.8283 86.0604 60.895 86L62.237 87.4829C62.5895 87.1639 62.7408 86.7716 62.8223 86.4201C62.8973 86.0965 62.935 85.6999 62.9751 85.2985L60.9851 85.0995ZM48.0249 85.2985C48.065 85.6999 48.1027 86.0965 48.1777 86.4201C48.2592 86.7716 48.4105 87.1639 48.763 87.4829L50.105 86C50.1717 86.0604 50.1588 86.1095 50.1261 85.9684C50.0869 85.7994 50.0604 85.5541 50.0149 85.0995L48.0249 85.2985ZM51.01 86C50.5531 86 50.3064 85.9981 50.1344 85.9759C49.9906 85.9574 50.0382 85.9396 50.105 86L48.763 87.4829C49.1154 87.8019 49.5209 87.9134 49.8787 87.9595C50.2082 88.0019 50.6066 88 51.01 88V86ZM45.6354 77.0124C46.297 76.4711 46.7059 76.14 47.0139 75.9558C47.3207 75.7723 47.2521 75.9039 47.0782 75.8319L47.8436 73.9842C47.1169 73.6831 46.4542 73.9602 45.9875 74.2393C45.522 74.5176 44.9779 74.9662 44.3689 75.4645L45.6354 77.0124ZM49.2538 77.4878C49.1755 76.7049 49.108 76.0029 48.9756 75.477C48.843 74.9496 48.5703 74.2852 47.8436 73.9842L47.0782 75.8319C46.9043 75.7599 46.9489 75.6183 47.0361 75.9649C47.1236 76.313 47.1786 76.8363 47.2637 77.6868L49.2538 77.4878ZM35.6938 81.6559C35.9791 81.9411 36.2594 82.2242 36.5224 82.4272C36.808 82.6476 37.1736 82.8555 37.6483 82.8791L37.748 80.8816C37.8379 80.8861 37.859 80.9323 37.7442 80.8438C37.6069 80.7378 37.4311 80.5647 37.108 80.2417L35.6938 81.6559ZM38.4484 80.3086C38.0948 80.5978 37.9026 80.7526 37.7554 80.8444C37.6325 80.921 37.658 80.8771 37.748 80.8816L37.6483 82.8791C38.1231 82.9028 38.5075 82.7323 38.8137 82.5415C39.0956 82.3657 39.4027 82.1119 39.7149 81.8565L38.4484 80.3086ZM29.1434 71.285C28.888 71.5972 28.6342 71.9043 28.4584 72.1862C28.2675 72.4924 28.0971 72.8768 28.1207 73.3516L30.1183 73.2519C30.1228 73.3418 30.0789 73.3674 30.1555 73.2445C30.2473 73.0973 30.4021 72.9051 30.6913 72.5515L29.1434 71.285ZM30.7582 73.8918C30.4352 73.5688 30.2621 73.393 30.1561 73.2556C30.0676 73.1409 30.1138 73.162 30.1183 73.2519L28.1207 73.3516C28.1444 73.8263 28.3523 74.1919 28.5727 74.4775C28.7757 74.7405 29.0588 75.0208 29.344 75.3061L30.7582 73.8918ZM33.313 63.7363C34.1636 63.8213 34.6868 63.8763 35.0349 63.9639C35.3815 64.0511 35.2399 64.0957 35.1679 63.9218L37.0157 63.1564C36.7147 62.4297 36.0502 62.157 35.5228 62.0243C34.9969 61.892 34.295 61.8245 33.512 61.7462L33.313 63.7363ZM35.5354 66.631C36.0336 66.022 36.4822 65.4779 36.7606 65.0125C37.0396 64.5458 37.3167 63.8831 37.0157 63.1564L35.1679 63.9218C35.0959 63.7479 35.2275 63.6792 35.044 63.9861C34.8598 64.2941 34.5287 64.703 33.9874 65.3646L35.5354 66.631ZM23 59.99C23 60.3934 22.9981 60.7918 23.0405 61.1213C23.0866 61.4791 23.1981 61.8846 23.5171 62.237L25 60.895C25.0604 60.9618 25.0426 61.0094 25.0241 60.8656C25.0019 60.6936 25 60.4469 25 59.99H23ZM25.9005 60.9851C25.4459 60.9396 25.2006 60.9131 25.0316 60.8739C24.8905 60.8412 24.9396 60.8283 25 60.895L23.5171 62.237C23.8361 62.5895 24.2284 62.7408 24.5799 62.8222C24.9035 62.8973 25.3001 62.935 25.7015 62.9751L25.9005 60.9851ZM25.7015 48.0249C25.3001 48.065 24.9035 48.1027 24.5799 48.1777C24.2284 48.2592 23.8361 48.4105 23.5171 48.763L25 50.105C24.9396 50.1717 24.8905 50.1588 25.0316 50.1261C25.2006 50.0869 25.4459 50.0604 25.9005 50.0149L25.7015 48.0249ZM25 51.01C25 50.5531 25.0019 50.3064 25.0241 50.1344C25.0426 49.9906 25.0604 50.0382 25 50.105L23.5171 48.763C23.1981 49.1154 23.0866 49.5209 23.0405 49.8787C22.9981 50.2082 23 50.6066 23 51.01H25ZM33.9886 45.6353C34.5299 46.2969 34.861 46.7058 35.0452 47.0138C35.2287 47.3206 35.0971 47.252 35.1691 47.0781L37.0168 47.8435C37.3179 47.1168 37.0408 46.4541 36.7617 45.9874C36.4834 45.5219 36.0348 44.9778 35.5365 44.3688L33.9886 45.6353ZM33.5132 49.2537C34.2961 49.1754 34.9981 49.1078 35.524 48.9755C36.0513 48.8429 36.7158 48.5702 37.0168 47.8435L35.1691 47.0781C35.2411 46.9042 35.3827 46.9488 35.0361 47.036C34.688 47.1235 34.1647 47.1785 33.3142 47.2636L33.5132 49.2537ZM29.3441 35.6925C29.0589 35.9778 28.7758 36.2581 28.5729 36.5211C28.3525 36.8067 28.1446 37.1723 28.1209 37.6471L30.1184 37.7467C30.1139 37.8366 30.0677 37.8577 30.1562 37.743C30.2622 37.6056 30.4353 37.4298 30.7583 37.1068L29.3441 35.6925ZM30.6915 38.4471C30.4022 38.0935 30.2475 37.9013 30.1557 37.7541C30.079 37.6312 30.1229 37.6568 30.1184 37.7467L28.1209 37.6471C28.0972 38.1218 28.2677 38.5063 28.4586 38.8124C28.6344 39.0943 28.8881 39.4014 29.1436 39.7136L30.6915 38.4471ZM39.715 29.1421C39.4028 28.8867 39.0957 28.6329 38.8138 28.4571C38.5077 28.2663 38.1232 28.0958 37.6485 28.1195L37.7481 30.117C37.6582 30.1215 37.6326 30.0776 37.7556 30.1542C37.9028 30.246 38.095 30.4008 38.4485 30.6901L39.715 29.1421ZM37.1082 30.7569C37.4312 30.4339 37.6071 30.2608 37.7444 30.1548C37.8591 30.0663 37.838 30.1125 37.7481 30.117L37.6485 28.1195C37.1737 28.1431 36.8082 28.351 36.5226 28.5714C36.2595 28.7744 35.9792 29.0575 35.694 29.3427L37.1082 30.7569ZM47.2638 33.3118C47.1788 34.1623 47.1238 34.6856 47.0362 35.0337C46.949 35.3803 46.9045 35.2387 47.0783 35.1667L47.8437 37.0144C48.5704 36.7134 48.8431 36.049 48.9758 35.5216C49.1081 34.9957 49.1756 34.2937 49.2539 33.5108L47.2638 33.3118ZM44.3691 35.5341C44.9781 36.0324 45.5222 36.481 45.9876 36.7593C46.4543 37.0384 47.117 37.3155 47.8437 37.0144L47.0783 35.1667C47.2522 35.0947 47.3209 35.2263 47.0141 35.0428C46.706 34.8586 46.2972 34.5275 45.6356 33.9862L44.3691 35.5341ZM59.99 25C60.4469 25 60.6936 25.0019 60.8656 25.0241C61.0094 25.0426 60.9618 25.0604 60.895 25L62.237 23.5171C61.8846 23.1981 61.4791 23.0866 61.1213 23.0405C60.7918 22.9981 60.3934 23 59.99 23V25ZM62.9751 25.7015C62.935 25.3001 62.8973 24.9035 62.8223 24.5799C62.7408 24.2284 62.5895 23.8361 62.237 23.5171L60.895 25C60.8283 24.9396 60.8412 24.8905 60.8739 25.0316C60.9131 25.2006 60.9396 25.4459 60.9851 25.9005L62.9751 25.7015ZM51.01 23C50.6066 23 50.2082 22.9981 49.8787 23.0405C49.5209 23.0866 49.1154 23.1981 48.763 23.5171L50.105 25C50.0382 25.0604 49.9906 25.0426 50.1344 25.0241C50.3064 25.0019 50.5531 25 51.01 25V23ZM50.0149 25.9005C50.0604 25.4459 50.0869 25.2006 50.1261 25.0316C50.1588 24.8905 50.1717 24.9396 50.105 25L48.763 23.5171C48.4105 23.8361 48.2592 24.2284 48.1777 24.5799C48.1027 24.9035 48.065 25.3001 48.0249 25.7015L50.0149 25.9005Z" fill="#FF6644"/>
<circle cx="55.5" cy="55.5" r="13.5" fill="white" stroke="#FF6644" stroke-width="2"/>
</svg>
