<svg width="110" height="110" viewBox="0 0 110 110" fill="none" xmlns="http://www.w3.org/2000/svg">
<circle cx="55" cy="55" r="54" stroke="#FF6644" stroke-width="2"/>
<path d="M48.8637 35H32.6364C31.4067 35 30.2275 35.4847 29.358 36.3473C28.4885 37.21 28 38.38 28 39.6V76.4C28 77.6199 28.4885 78.7897 29.358 79.6527C30.2275 80.5152 31.4067 81 32.6364 81H74.3636C76.9243 81 79 78.9401 79 76.4V57.9999" stroke="#FF6644" stroke-width="2" stroke-linecap="round" stroke-linejoin="round"/>
<path d="M28 45H59" stroke="#FF6644" stroke-width="2" stroke-linecap="round" stroke-linejoin="round"/>
<path d="M40 69L47 62.4999L40 56" stroke="#FF6644" stroke-width="2" stroke-linecap="round" stroke-linejoin="round"/>
<path d="M53 69H62" stroke="#FF6644" stroke-width="2" stroke-linecap="round" stroke-linejoin="round"/>
<path d="M61.2025 35.9539C59.5992 35.6703 59.5992 33.3297 61.2025 33.0461C67.0113 32.0185 71.6313 27.5195 72.8922 21.6629L72.9888 21.2139C73.3358 19.6026 75.5919 19.5926 75.9528 21.2008L76.0703 21.724C77.3774 27.553 81.9989 32.014 87.7914 33.0387C89.4029 33.3238 89.4029 35.6762 87.7914 35.9613C81.9989 36.986 77.3774 41.447 76.0703 47.276L75.9528 47.7992C75.5919 49.4075 73.3358 49.3974 72.9888 47.7861L72.8922 47.3371C71.6313 41.4804 67.0113 36.9815 61.2025 35.9539Z" stroke="#FF6644" stroke-width="2" stroke-linecap="round" stroke-linejoin="round"/>
</svg>
