<svg width="220" height="65" viewBox="0 0 220 65" fill="none" xmlns="http://www.w3.org/2000/svg">
<path d="M91.8835 50.2025C96.0576 49.117 98.8027 45.8602 98.8027 41.6009C98.8027 36.339 94.6662 32.6416 88.8563 32.6416H78.5151V60.969H83.2909V50.5601H86.669L94.0708 60.969H99.6801L91.8835 50.2025ZM88.8626 37.0606C91.8459 37.0606 93.9141 38.9061 93.9141 41.6009C93.9141 44.2957 91.8459 46.1412 88.8626 46.1412H83.2909V37.0606H88.8626Z" fill="black"/>
<path d="M109.971 60.9692C112.413 60.9692 114.661 59.6441 115.937 57.4399L116.828 60.5678H120.162V39.7236H115.705V51.7893C115.705 54.758 113.806 56.8411 111.21 56.8411C108.615 56.8411 106.869 54.758 106.869 51.7893V39.7236H102.411V52.3117C102.411 57.3253 105.666 60.9692 109.971 60.9692Z" fill="black"/>
<path d="M134.394 60.9689C139.683 60.9689 144.058 57.9273 144.058 52.8812C144.058 47.237 139.483 45.5953 135.547 44.2335C132.482 43.19 129.818 42.2291 129.818 39.7093C129.818 37.5076 131.849 36.3431 134.231 36.3431C136.738 36.3431 138.524 37.6667 139.52 39.9065L144.058 39.1429C142.623 34.7395 139.007 31.9333 134.074 31.9333C129.141 31.9333 124.923 34.8986 124.923 39.9383C124.923 45.6271 129.499 47.1861 133.435 48.5097C136.456 49.5087 139.163 50.4695 139.163 53.0339C139.163 55.2738 137.133 56.5592 134.431 56.5592C131.329 56.5592 129.655 55.0765 128.189 52.3976L123.576 53.1994C124.93 57.9655 129.223 60.9689 134.394 60.9689Z" fill="black"/>
<path d="M155.558 56.8485C154.023 56.8485 153.28 56.0623 153.28 54.4573V43.6546H159.371V39.534H153.28V33.3499H149.9L148.761 39.534H145.424V43.6546H148.761V54.4573C148.761 58.6631 151.076 60.9691 155.558 60.9691H159.371L159.761 56.8485H155.558Z" fill="black"/>
<path d="M172.733 60.9689C179.143 60.9689 183.657 56.414 183.657 49.992C183.657 43.57 179.137 39.0151 172.733 39.0151C166.33 39.0151 161.81 43.57 161.81 49.992C161.81 56.414 166.33 60.9689 172.733 60.9689ZM172.733 56.6983C169.036 56.6983 166.522 53.9718 166.522 49.992C166.522 46.0122 169.036 43.2857 172.733 43.2857C176.43 43.2857 178.945 46.0122 178.945 49.992C178.945 53.9718 176.43 56.6983 172.733 56.6983Z" fill="black"/>
<path d="M191.92 60.9692V48.4244C191.92 45.7298 193.077 44.2169 195.607 44.2169H197.995L197.636 39.7236H196.838C194.632 39.7236 192.934 40.4184 191.663 42.7884L190.865 39.7236H187.754V60.9692H191.914H191.92Z" fill="black"/>
<path d="M219.837 49.7465C219.837 43.6475 215.59 39.0151 209.598 39.0151C203.607 39.0151 199.36 43.6088 199.36 49.992C199.36 56.3752 203.607 60.9689 209.598 60.9689C213.696 60.9689 217.561 58.895 219.036 54.8699L214.945 54.1398C213.995 55.6452 212.179 56.6983 209.867 56.6983C206.528 56.6983 204.33 54.5016 203.918 51.2518H219.765C219.801 50.8061 219.843 50.315 219.843 49.7465H219.837ZM209.598 43.079C212.328 43.079 214.377 44.9461 215.094 47.5886H204.175C204.898 44.8621 206.94 43.079 209.598 43.079Z" fill="black"/>
<path fill-rule="evenodd" clip-rule="evenodd" d="M55.855 6.57336C51.6357 2.1897 44.8356 2.1897 31.2422 2.1897H28.839C15.2456 2.1897 8.44551 2.1897 4.22617 6.57336C0 10.9499 0 18.0035 0 32.1034V34.5962C0 48.6962 0 55.7497 4.22617 60.1263C8.45233 64.5029 15.2456 64.51 28.839 64.51H31.2422C44.8356 64.51 51.6357 64.51 55.855 60.1263C60.0744 55.7426 60.0812 48.6962 60.0812 34.5962V32.1034C60.0812 18.0035 60.0812 10.9499 55.855 6.57336ZM50.0039 40.7008C50.0039 42.6554 48.222 44.093 46.3854 43.6185L42.3641 42.5775C41.8588 42.4429 41.497 41.9826 41.4765 41.4373L40.9713 25.9422C40.8279 23.8885 39.36 22.2597 37.8239 21.7781C37.7351 21.7498 37.6463 21.7852 37.5917 21.8631C37.5371 21.941 37.5576 22.0472 37.6327 22.1039C38.0082 22.4084 39.0528 23.3998 39.0528 25.1136V41.7206L39.244 41.7701L39.046 41.7206V45.3819C39.046 47.3365 37.264 48.7741 35.4274 48.2996L31.3788 47.2515C30.8872 47.1099 30.5322 46.6495 30.5185 46.1184L30.0133 30.6162C29.8699 28.5625 28.402 26.9337 26.8659 26.4521C26.7771 26.4238 26.6883 26.4592 26.6337 26.5371C26.5791 26.615 26.5996 26.7212 26.6747 26.7779C27.0502 27.0824 28.0948 28.0739 28.0948 29.7877V46.3875L29.9996 46.8903L28.0948 46.3946V50.0559C28.0948 52.0105 26.3128 53.4481 24.4763 52.9736L12.8355 49.9568C11.2174 49.5389 10.0841 48.0376 10.0841 46.3096V26.013C10.0841 24.0584 11.866 22.6208 13.7026 23.0953L21.0421 24.9932V21.3319C21.0421 19.3773 22.824 17.9397 24.6606 18.4142L31.9932 20.3121V16.6508C31.9932 14.6962 33.7752 13.2586 35.6118 13.7331L47.2525 16.75C48.8706 17.1678 50.0039 18.6692 50.0039 20.3971V40.6937V40.7008Z" fill="black"/>
<path d="M86.0749 12.235L82.6939 21.37H79.2709L86.0749 6.565L92.8789 21.37H89.4559L86.0749 12.235ZM91.2409 22H80.9089V24.31H77.9899V19.375H94.1599V24.31H91.2409V22ZM98.406 14.65C98.406 15.588 98.602 16.421 98.994 17.149C99.386 17.877 99.925 18.451 100.611 18.871C101.297 19.291 102.095 19.501 103.005 19.501C103.915 19.501 104.713 19.291 105.399 18.871C106.085 18.451 106.617 17.877 106.995 17.149C107.387 16.421 107.583 15.588 107.583 14.65C107.583 13.712 107.394 12.879 107.016 12.151C106.638 11.423 106.106 10.849 105.42 10.429C104.734 10.009 103.929 9.799 103.005 9.799C102.095 9.799 101.297 10.009 100.611 10.429C99.925 10.849 99.386 11.423 98.994 12.151C98.602 12.879 98.406 13.712 98.406 14.65ZM95.235 14.65C95.235 13.53 95.431 12.508 95.823 11.584C96.215 10.646 96.761 9.834 97.461 9.148C98.161 8.462 98.98 7.937 99.918 7.573C100.87 7.195 101.899 7.006 103.005 7.006C104.125 7.006 105.154 7.195 106.092 7.573C107.03 7.937 107.849 8.462 108.549 9.148C109.263 9.834 109.809 10.646 110.187 11.584C110.579 12.508 110.775 13.53 110.775 14.65C110.775 15.756 110.579 16.785 110.187 17.737C109.809 18.675 109.27 19.494 108.57 20.194C107.884 20.894 107.065 21.44 106.113 21.832C105.175 22.21 104.139 22.399 103.005 22.399C101.871 22.399 100.828 22.21 99.876 21.832C98.938 21.44 98.119 20.894 97.419 20.194C96.719 19.494 96.18 18.675 95.802 17.737C95.424 16.785 95.235 15.756 95.235 14.65ZM115.511 14.65C115.511 15.616 115.728 16.463 116.162 17.191C116.61 17.905 117.191 18.458 117.905 18.85C118.619 19.228 119.396 19.417 120.236 19.417C120.936 19.417 121.559 19.326 122.105 19.144C122.651 18.962 123.141 18.717 123.575 18.409C124.023 18.101 124.408 17.765 124.73 17.401V20.782C124.128 21.258 123.47 21.629 122.756 21.895C122.056 22.161 121.167 22.294 120.089 22.294C118.969 22.294 117.926 22.112 116.96 21.748C116.008 21.384 115.175 20.859 114.461 20.173C113.761 19.487 113.215 18.682 112.823 17.758C112.445 16.82 112.256 15.784 112.256 14.65C112.256 13.516 112.445 12.487 112.823 11.563C113.215 10.625 113.761 9.813 114.461 9.127C115.175 8.441 116.008 7.916 116.96 7.552C117.926 7.188 118.969 7.006 120.089 7.006C121.167 7.006 122.056 7.139 122.756 7.405C123.47 7.671 124.128 8.042 124.73 8.518V11.899C124.408 11.535 124.023 11.199 123.575 10.891C123.141 10.583 122.651 10.338 122.105 10.156C121.559 9.974 120.936 9.883 120.236 9.883C119.396 9.883 118.619 10.079 117.905 10.471C117.191 10.849 116.61 11.395 116.162 12.109C115.728 12.823 115.511 13.67 115.511 14.65ZM125.613 10.009V7.3H136.533V10.009H132.564V22H129.561V10.009H125.613ZM150.047 7.3L143.138 22H140.009L141.962 17.569L137.153 7.3H140.555L144.209 16.414L142.802 16.351L146.876 7.3H150.047ZM161 10.009H154.616V22H151.571V7.3H164.045V22H161V10.009ZM168.306 15.532V12.823H179.1V15.532H168.306ZM177.189 7.3H180.192V22H177.189V7.3ZM167.319 7.3H170.322V22H167.319V7.3ZM185.687 14.65C185.687 15.588 185.883 16.421 186.275 17.149C186.667 17.877 187.206 18.451 187.892 18.871C188.578 19.291 189.376 19.501 190.286 19.501C191.196 19.501 191.994 19.291 192.68 18.871C193.366 18.451 193.898 17.877 194.276 17.149C194.668 16.421 194.864 15.588 194.864 14.65C194.864 13.712 194.675 12.879 194.297 12.151C193.919 11.423 193.387 10.849 192.701 10.429C192.015 10.009 191.21 9.799 190.286 9.799C189.376 9.799 188.578 10.009 187.892 10.429C187.206 10.849 186.667 11.423 186.275 12.151C185.883 12.879 185.687 13.712 185.687 14.65ZM182.516 14.65C182.516 13.53 182.712 12.508 183.104 11.584C183.496 10.646 184.042 9.834 184.742 9.148C185.442 8.462 186.261 7.937 187.199 7.573C188.151 7.195 189.18 7.006 190.286 7.006C191.406 7.006 192.435 7.195 193.373 7.573C194.311 7.937 195.13 8.462 195.83 9.148C196.544 9.834 197.09 10.646 197.468 11.584C197.86 12.508 198.056 13.53 198.056 14.65C198.056 15.756 197.86 16.785 197.468 17.737C197.09 18.675 196.551 19.494 195.851 20.194C195.165 20.894 194.346 21.44 193.394 21.832C192.456 22.21 191.42 22.399 190.286 22.399C189.152 22.399 188.109 22.21 187.157 21.832C186.219 21.44 185.4 20.894 184.7 20.194C184 19.494 183.461 18.675 183.083 17.737C182.705 16.785 182.516 15.756 182.516 14.65ZM208.921 14.545V13.18H211.294C211.728 13.18 212.106 13.11 212.428 12.97C212.75 12.83 212.995 12.627 213.163 12.361C213.345 12.095 213.436 11.78 213.436 11.416C213.436 10.856 213.24 10.429 212.848 10.135C212.47 9.841 211.952 9.694 211.294 9.694H209.677V19.606H211.609C212.113 19.606 212.568 19.536 212.974 19.396C213.38 19.242 213.695 19.004 213.919 18.682C214.157 18.36 214.276 17.947 214.276 17.443C214.276 17.079 214.206 16.771 214.066 16.519C213.94 16.253 213.751 16.036 213.499 15.868C213.261 15.686 212.981 15.56 212.659 15.49C212.337 15.406 211.987 15.364 211.609 15.364H208.921V13.726H211.882C212.596 13.726 213.275 13.803 213.919 13.957C214.577 14.111 215.165 14.356 215.683 14.692C216.201 15.014 216.607 15.434 216.901 15.952C217.209 16.47 217.363 17.093 217.363 17.821C217.363 18.787 217.132 19.578 216.67 20.194C216.222 20.81 215.585 21.265 214.759 21.559C213.933 21.853 212.974 22 211.882 22H206.674V7.3H211.567C212.547 7.3 213.408 7.44 214.15 7.72C214.892 7.986 215.473 8.392 215.893 8.938C216.313 9.484 216.523 10.177 216.523 11.017C216.523 11.759 216.313 12.396 215.893 12.928C215.473 13.46 214.892 13.866 214.15 14.146C213.408 14.412 212.547 14.545 211.567 14.545H208.921Z" fill="black"/>
</svg>
