<svg width="349" height="85" viewBox="0 0 349 85" fill="none" xmlns="http://www.w3.org/2000/svg">
<path d="M119.21 65.7547C124.625 64.3463 128.186 60.121 128.186 54.5949C128.186 47.7682 122.82 42.9712 115.282 42.9712H101.865V79.7231H108.062V66.2187H112.444L122.047 79.7231H129.325L119.21 65.7547ZM115.29 48.7044C119.161 48.7044 121.844 51.0987 121.844 54.5949C121.844 58.0912 119.161 60.4855 115.29 60.4855H108.062V48.7044H115.29Z" fill="#CCCCCC"/>
<path d="M142.676 79.7231C145.845 79.7231 148.76 78.004 150.416 75.1443L151.573 79.2024H155.898V52.1592H150.115V67.8132C150.115 71.6647 147.651 74.3674 144.284 74.3674C140.917 74.3674 138.651 71.6647 138.651 67.8132V52.1592H132.868V68.4909C132.868 74.9955 137.091 79.7231 142.676 79.7231Z" fill="#CCCCCC"/>
<path d="M174.362 79.7229C181.225 79.7229 186.901 75.7767 186.901 69.23C186.901 61.9072 180.965 59.7772 175.858 58.0105C171.882 56.6566 168.426 55.4099 168.426 52.1407C168.426 49.2842 171.061 47.7734 174.151 47.7734C177.403 47.7734 179.721 49.4906 181.014 52.3966L186.901 51.4059C185.039 45.693 180.347 42.0522 173.948 42.0522C167.548 42.0522 162.076 45.8994 162.076 52.4379C162.076 59.8185 168.012 61.8411 173.118 63.5583C177.038 64.8545 180.55 66.1011 180.55 69.4281C180.55 72.3341 177.916 74.0017 174.411 74.0017C170.386 74.0017 168.215 72.0782 166.312 68.6025L160.327 69.6427C162.084 75.8263 167.654 79.7229 174.362 79.7229Z" fill="#CCCCCC"/>
<path d="M201.821 74.3772C199.829 74.3772 198.865 73.3573 198.865 71.2749V57.2596H206.768V51.9135H198.865V43.8901H194.48L193.002 51.9135H188.673V57.2596H193.002V71.2749C193.002 76.7315 196.006 79.7232 201.821 79.7232H206.768L207.274 74.3772H201.821Z" fill="#CCCCCC"/>
<path d="M224.104 79.723C232.42 79.723 238.277 73.8135 238.277 65.4816C238.277 57.1497 232.412 51.2402 224.104 51.2402C215.797 51.2402 209.932 57.1497 209.932 65.4816C209.932 73.8135 215.797 79.723 224.104 79.723ZM224.104 74.1823C219.308 74.1823 216.046 70.645 216.046 65.4816C216.046 60.3182 219.308 56.7809 224.104 56.7809C228.901 56.7809 232.163 60.3182 232.163 65.4816C232.163 70.645 228.901 74.1823 224.104 74.1823Z" fill="#CCCCCC"/>
<path d="M248.996 79.7231V63.4476C248.996 59.9515 250.497 57.9887 253.78 57.9887H256.878L256.412 52.1592H255.377C252.516 52.1592 250.312 53.0606 248.664 56.1354L247.628 52.1592H243.591V79.7231H248.989H248.996Z" fill="#CCCCCC"/>
<path d="M285.216 65.1631C285.216 57.2503 279.706 51.2402 271.933 51.2402C264.16 51.2402 258.65 57.2 258.65 65.4816C258.65 73.7632 264.16 79.723 271.933 79.723C277.249 79.723 282.263 77.0323 284.177 71.8102L278.869 70.863C277.636 72.816 275.281 74.1823 272.281 74.1823C267.949 74.1823 265.097 71.3324 264.563 67.1161H285.123C285.169 66.5377 285.223 65.9007 285.223 65.1631H285.216ZM271.933 56.5126C275.474 56.5126 278.132 58.9351 279.062 62.3634H264.896C265.834 58.8261 268.484 56.5126 271.933 56.5126Z" fill="#CCCCCC"/>
<path fill-rule="evenodd" clip-rule="evenodd" d="M72.4662 9.15025C66.9921 3.46289 58.1696 3.46289 40.5336 3.46289H37.4156C19.7796 3.46289 10.9572 3.46289 5.48302 9.15025C0 14.8284 0 23.9796 0 42.2729V45.5071C0 63.8003 0 72.9515 5.48302 78.6297C10.966 84.3079 19.7796 84.3171 37.4156 84.3171H40.5336C58.1696 84.3171 66.9921 84.3171 72.4662 78.6297C77.9404 72.9424 77.9492 63.8003 77.9492 45.5071V42.2729C77.9492 23.9796 77.9492 14.8284 72.4662 9.15025ZM64.875 53.4271C64.875 55.963 62.5631 57.8281 60.1804 57.2125L54.9631 55.8619C54.3076 55.6873 53.8381 55.0901 53.8116 54.3826L53.1561 34.2794C52.9701 31.6148 51.0656 29.5016 49.0726 28.8768C48.9574 28.8401 48.8423 28.886 48.7714 28.9871C48.7006 29.0882 48.7271 29.226 48.8246 29.2995C49.3118 29.6946 50.667 30.9809 50.667 33.2044V54.7502L50.915 54.8145L50.6581 54.7502V59.5004C50.6581 62.0362 48.3462 63.9014 45.9635 63.2858L40.7108 61.926C40.073 61.7422 39.6124 61.145 39.5947 60.4559L38.9392 40.3434C38.7532 37.6789 36.8487 35.5657 34.8557 34.9409C34.7406 34.9041 34.6254 34.9501 34.5545 35.0511C34.4837 35.1522 34.5103 35.29 34.6077 35.3635C35.0949 35.7586 36.4501 37.0449 36.4501 39.2684V60.805L38.9215 61.4574L36.4501 60.8142V65.5644C36.4501 68.1003 34.1382 69.9655 31.7555 69.3499L16.6528 65.4358C14.5535 64.8937 13.0831 62.9458 13.0831 60.704V34.3712C13.0831 31.8354 15.395 29.9702 17.7777 30.5858L27.2999 33.0482V28.298C27.2999 25.7621 29.6119 23.8969 31.9946 24.5125L41.508 26.9749V22.2247C41.508 19.6889 43.8199 17.8237 46.2026 18.4393L61.3053 22.3534C63.4046 22.8955 64.875 24.8433 64.875 27.0852V53.4179V53.4271Z" fill="#CCCCCC"/>
<path d="M111.569 17.0671L107.222 28.8121H102.821L111.569 9.77707L120.317 28.8121H115.916L111.569 17.0671ZM118.211 29.6221H104.927V32.5921H101.174V26.2471H121.964V32.5921H118.211V29.6221ZM127.423 20.1721C127.423 21.3781 127.675 22.4491 128.179 23.3851C128.683 24.3211 129.376 25.0591 130.258 25.5991C131.14 26.1391 132.166 26.4091 133.336 26.4091C134.506 26.4091 135.532 26.1391 136.414 25.5991C137.296 25.0591 137.98 24.3211 138.466 23.3851C138.97 22.4491 139.222 21.3781 139.222 20.1721C139.222 18.9661 138.979 17.8951 138.493 16.9591C138.007 16.0231 137.323 15.2851 136.441 14.7451C135.559 14.2051 134.524 13.9351 133.336 13.9351C132.166 13.9351 131.14 14.2051 130.258 14.7451C129.376 15.2851 128.683 16.0231 128.179 16.9591C127.675 17.8951 127.423 18.9661 127.423 20.1721ZM123.346 20.1721C123.346 18.7321 123.598 17.4181 124.102 16.2301C124.606 15.0241 125.308 13.9801 126.208 13.0981C127.108 12.2161 128.161 11.5411 129.367 11.0731C130.591 10.5871 131.914 10.3441 133.336 10.3441C134.776 10.3441 136.099 10.5871 137.305 11.0731C138.511 11.5411 139.564 12.2161 140.464 13.0981C141.382 13.9801 142.084 15.0241 142.57 16.2301C143.074 17.4181 143.326 18.7321 143.326 20.1721C143.326 21.5941 143.074 22.9171 142.57 24.1411C142.084 25.3471 141.391 26.4001 140.491 27.3001C139.609 28.2001 138.556 28.9021 137.332 29.4061C136.126 29.8921 134.794 30.1351 133.336 30.1351C131.878 30.1351 130.537 29.8921 129.313 29.4061C128.107 28.9021 127.054 28.2001 126.154 27.3001C125.254 26.4001 124.561 25.3471 124.075 24.1411C123.589 22.9171 123.346 21.5941 123.346 20.1721ZM149.416 20.1721C149.416 21.4141 149.695 22.5031 150.253 23.4391C150.829 24.3571 151.576 25.0681 152.494 25.5721C153.412 26.0581 154.411 26.3011 155.491 26.3011C156.391 26.3011 157.192 26.1841 157.894 25.9501C158.596 25.7161 159.226 25.4011 159.784 25.0051C160.36 24.6091 160.855 24.1771 161.269 23.7091V28.0561C160.495 28.6681 159.649 29.1451 158.731 29.4871C157.831 29.8291 156.688 30.0001 155.302 30.0001C153.862 30.0001 152.521 29.7661 151.279 29.2981C150.055 28.8301 148.984 28.1551 148.066 27.2731C147.166 26.3911 146.464 25.3561 145.96 24.1681C145.474 22.9621 145.231 21.6301 145.231 20.1721C145.231 18.7141 145.474 17.3911 145.96 16.2031C146.464 14.9971 147.166 13.9531 148.066 13.0711C148.984 12.1891 150.055 11.5141 151.279 11.0461C152.521 10.5781 153.862 10.3441 155.302 10.3441C156.688 10.3441 157.831 10.5151 158.731 10.8571C159.649 11.1991 160.495 11.6761 161.269 12.2881V16.6351C160.855 16.1671 160.36 15.7351 159.784 15.3391C159.226 14.9431 158.596 14.6281 157.894 14.3941C157.192 14.1601 156.391 14.0431 155.491 14.0431C154.411 14.0431 153.412 14.2951 152.494 14.7991C151.576 15.2851 150.829 15.9871 150.253 16.9051C149.695 17.8231 149.416 18.9121 149.416 20.1721ZM162.403 14.2051V10.7221H176.443V14.2051H171.34V29.6221H167.479V14.2051H162.403ZM193.818 10.7221L184.935 29.6221H180.912L183.423 23.9251L177.24 10.7221H181.614L186.312 22.4401L184.503 22.3591L189.741 10.7221H193.818ZM207.901 14.2051H199.693V29.6221H195.778V10.7221H211.816V29.6221H207.901V14.2051ZM217.295 21.3061V17.8231H231.173V21.3061H217.295ZM228.716 10.7221H232.577V29.6221H228.716V10.7221ZM216.026 10.7221H219.887V29.6221H216.026V10.7221ZM239.642 20.1721C239.642 21.3781 239.894 22.4491 240.398 23.3851C240.902 24.3211 241.595 25.0591 242.477 25.5991C243.359 26.1391 244.385 26.4091 245.555 26.4091C246.725 26.4091 247.751 26.1391 248.633 25.5991C249.515 25.0591 250.199 24.3211 250.685 23.3851C251.189 22.4491 251.441 21.3781 251.441 20.1721C251.441 18.9661 251.198 17.8951 250.712 16.9591C250.226 16.0231 249.542 15.2851 248.66 14.7451C247.778 14.2051 246.743 13.9351 245.555 13.9351C244.385 13.9351 243.359 14.2051 242.477 14.7451C241.595 15.2851 240.902 16.0231 240.398 16.9591C239.894 17.8951 239.642 18.9661 239.642 20.1721ZM235.565 20.1721C235.565 18.7321 235.817 17.4181 236.321 16.2301C236.825 15.0241 237.527 13.9801 238.427 13.0981C239.327 12.2161 240.38 11.5411 241.586 11.0731C242.81 10.5871 244.133 10.3441 245.555 10.3441C246.995 10.3441 248.318 10.5871 249.524 11.0731C250.73 11.5411 251.783 12.2161 252.683 13.0981C253.601 13.9801 254.303 15.0241 254.789 16.2301C255.293 17.4181 255.545 18.7321 255.545 20.1721C255.545 21.5941 255.293 22.9171 254.789 24.1411C254.303 25.3471 253.61 26.4001 252.71 27.3001C251.828 28.2001 250.775 28.9021 249.551 29.4061C248.345 29.8921 247.013 30.1351 245.555 30.1351C244.097 30.1351 242.756 29.8921 241.532 29.4061C240.326 28.9021 239.273 28.2001 238.373 27.3001C237.473 26.4001 236.78 25.3471 236.294 24.1411C235.808 22.9171 235.565 21.5941 235.565 20.1721ZM269.513 20.0371V18.2821H272.564C273.122 18.2821 273.608 18.1921 274.022 18.0121C274.436 17.8321 274.751 17.5711 274.967 17.2291C275.201 16.8871 275.318 16.4821 275.318 16.0141C275.318 15.2941 275.066 14.7451 274.562 14.3671C274.076 13.9891 273.41 13.8001 272.564 13.8001H270.485V26.5441H272.969C273.617 26.5441 274.202 26.4541 274.724 26.2741C275.246 26.0761 275.651 25.7701 275.939 25.3561C276.245 24.9421 276.398 24.4111 276.398 23.7631C276.398 23.2951 276.308 22.8991 276.128 22.5751C275.966 22.2331 275.723 21.9541 275.399 21.7381C275.093 21.5041 274.733 21.3421 274.319 21.2521C273.905 21.1441 273.455 21.0901 272.969 21.0901H269.513V18.9841H273.32C274.238 18.9841 275.111 19.0831 275.939 19.2811C276.785 19.4791 277.541 19.7941 278.207 20.2261C278.873 20.6401 279.395 21.1801 279.773 21.8461C280.169 22.5121 280.367 23.3131 280.367 24.2491C280.367 25.4911 280.07 26.5081 279.476 27.3001C278.9 28.0921 278.081 28.6771 277.019 29.0551C275.957 29.4331 274.724 29.6221 273.32 29.6221H266.624V10.7221H272.915C274.175 10.7221 275.282 10.9021 276.236 11.2621C277.19 11.6041 277.937 12.1261 278.477 12.8281C279.017 13.5301 279.287 14.4211 279.287 15.5011C279.287 16.4551 279.017 17.2741 278.477 17.9581C277.937 18.6421 277.19 19.1641 276.236 19.5241C275.282 19.8661 274.175 20.0371 272.915 20.0371H269.513Z" fill="#CCCCCC"/>
</svg>
