<svg width="188" height="93" viewBox="0 0 188 93" fill="none" xmlns="http://www.w3.org/2000/svg">
<path fill-rule="evenodd" clip-rule="evenodd" d="M77.9502 0.838867H0V51.8649H19.4872C16.3172 47.454 14.6062 42.0804 14.6142 36.5589C14.6142 22.468 25.5202 11.0434 38.9751 11.0434C52.43 11.0434 63.3345 22.468 63.3345 36.5589C63.3345 42.3025 61.5214 47.6019 58.4631 51.8649H77.9486V0.838867H77.9494H77.9502Z" fill="#989898"/>
<path fill-rule="evenodd" clip-rule="evenodd" d="M29.5289 31.4541H29.2323V92.6897H87.6946V92.3765C59.7714 83.7594 37.7592 60.704 29.5289 31.4541Z" fill="#989898"/>
<path fill-rule="evenodd" clip-rule="evenodd" d="M153.179 48.0257C153.08 48.2812 152.957 48.6512 152.817 49.138C152.676 49.6265 152.605 50.0282 152.605 50.3464C152.605 50.6428 152.672 50.8725 152.801 51.0294C152.935 51.1915 153.142 51.3217 153.425 51.4286C153.587 51.4687 153.772 51.5054 153.985 51.538C154.199 51.5714 154.384 51.599 154.546 51.6173V52.2395H149.444V51.6173C149.766 51.5764 150.084 51.4695 150.398 51.3C150.712 51.1313 150.98 50.9301 151.202 50.6979C151.383 50.485 151.535 50.257 151.657 50.0123C151.778 49.7718 151.858 49.5848 151.901 49.457L158.514 31.4362H159.059L165.887 51.6165H167.917V52.2386H159.658V51.6165H162.329L160.122 45.1948H154.266L153.179 48.0257H153.179ZM157.331 36.6755L154.42 44.5702H159.91L157.331 36.6755ZM186.998 32.0617H184.694V51.6115H186.998V52.2386H179.045V51.6115H181.35V32.0617H177.975C177.711 32.0617 177.347 32.0943 176.882 32.1586C176.415 32.2195 176.01 32.4216 175.666 32.7615C175.395 33.0162 175.199 33.3469 175.101 33.7143C175.016 34.0483 174.951 34.3882 174.904 34.7306C174.865 35.0696 174.832 35.4437 174.811 35.8554C174.792 36.2713 174.779 36.7573 174.767 37.3176C174.756 37.878 174.746 38.541 174.739 39.3026C174.726 40.065 174.712 40.9543 174.691 41.9706L174.573 46.8332C174.551 47.6182 174.527 48.3188 174.496 48.9451C174.476 49.518 174.358 50.0825 174.147 50.6111C173.988 51.0119 173.803 51.3209 173.603 51.533C173.402 51.7426 173.17 51.8821 172.879 52.0416C172.587 52.2002 172.142 52.242 171.578 52.242C170.589 52.242 169.781 52.009 169.158 51.5422C168.851 51.3025 168.588 51.0052 168.384 50.6654C168.153 50.2946 168.035 49.8102 168.035 49.2157C168.035 48.5359 168.218 47.9723 168.584 47.5247C168.948 47.0804 169.463 46.8574 170.13 46.8574C170.697 46.8574 171.147 47.0261 171.482 47.366C171.815 47.7059 171.983 48.1092 171.983 48.5752C171.983 49.1272 171.855 49.6148 171.597 50.0382C171.498 50.1877 171.406 50.3238 171.327 50.4516C171.257 50.5535 171.215 50.6745 171.209 50.8006C171.209 50.9075 171.259 51.0461 171.361 51.2148C171.459 51.3835 171.682 51.4679 172.02 51.4679C172.303 51.4679 172.58 51.3785 172.862 51.2006C173.141 51.0203 173.444 50.6654 173.581 50.2512C173.718 49.8403 173.836 49.3827 173.866 48.8533C173.898 48.3238 173.923 47.6483 173.943 46.824L174.063 41.9639C174.082 40.9067 174.102 40.0508 174.124 39.3944C174.143 38.7389 174.155 38.2212 174.155 37.8387V35.2675C174.155 34.9519 174.138 34.5811 174.107 34.1577C174.075 33.7302 173.923 33.3218 173.671 32.9845C173.52 32.7824 173.334 32.6103 173.124 32.4776C172.933 32.3565 172.73 32.2554 172.52 32.1753C172.319 32.1018 171.994 32.0625 171.55 32.0625H170.822V31.4371H187.002V32.0634H187.002L186.998 32.0617ZM121.138 32.0817H118.582L124.571 45.2992L128.315 35.2993C128.414 35.0654 128.515 34.7406 128.603 34.3272C128.692 33.9139 128.74 33.5782 128.74 33.3243C128.74 32.9001 128.603 32.5853 128.329 32.384C128.048 32.1803 127.713 32.0742 127.371 32.0817H126.946V31.4454H132.114V32.0817C131.65 32.0817 131.259 32.1661 130.946 32.3373C130.655 32.4893 130.389 32.6872 130.156 32.9243C129.958 33.1264 129.789 33.3569 129.653 33.6099C129.533 33.8421 129.45 34.0224 129.409 34.1502L125.12 45.776C124.876 46.4124 124.61 46.981 124.378 47.4804C124.147 47.9806 123.931 48.399 123.638 48.8967C123.324 49.4303 123.156 49.7234 122.836 50.1601C122.47 50.662 122.276 50.8775 121.843 51.28C121.468 51.6299 121.111 51.8729 120.756 52.0232C120.362 52.1777 119.945 52.252 119.525 52.2428C118.899 52.2428 118.35 52.1426 117.883 51.9405C117.445 51.7551 117.035 51.5029 116.669 51.1914C116.141 50.7255 115.803 50.242 115.651 49.7426C115.508 49.3067 115.43 48.8508 115.422 48.3898C115.422 48.1126 115.461 47.837 115.542 47.5606C115.623 47.2833 115.743 47.0353 115.908 46.8115C116.07 46.5911 116.283 46.404 116.547 46.2554C116.811 46.1067 117.125 46.0316 117.491 46.0316C118.139 46.0316 118.625 46.2236 118.95 46.6053C119.274 46.9869 119.436 47.3718 119.436 47.7501C119.436 47.9856 119.395 48.2194 119.316 48.4533C119.242 48.6687 119.14 48.8725 119.013 49.0587C118.768 49.3994 118.494 49.6591 118.19 49.8386C117.884 50.019 117.732 50.2462 117.732 50.5226C117.732 50.7347 117.861 50.9668 118.112 51.2249C118.365 51.4779 118.774 51.6048 119.344 51.6048C119.791 51.6048 120.222 51.4887 120.636 51.2558C121.052 51.0219 121.403 50.7464 121.685 50.4274C121.908 50.1718 122.111 49.8871 122.293 49.5681C122.474 49.2482 122.596 49.0361 122.657 48.9318L114.872 32.0792H112.773V31.4429H121.137V32.0801L121.138 32.0817ZM112.131 36.9285C112.093 36.5519 112.016 36.1803 111.905 35.8195C111.783 35.4162 111.602 35.0037 111.358 34.5794C111.114 34.1552 110.791 33.7435 110.388 33.3394C109.62 32.5703 108.664 32.0383 107.625 31.8028C106.599 31.5615 105.551 31.4396 104.499 31.4371H95.854V32.0634H98.1589V51.6132H95.854V52.2395H103.809V51.6132H101.504V43.9756H104.455C105.648 43.9756 106.795 43.8353 107.889 43.5489C108.984 43.2625 109.876 42.7598 110.566 42.0399C110.708 41.8905 110.869 41.6959 111.053 41.4546C111.234 41.2082 111.41 40.9126 111.584 40.5627C111.755 40.2128 111.899 39.8061 112.01 39.3393C112.121 38.8742 112.176 38.3456 112.176 37.7535C112.174 37.478 112.158 37.2032 112.131 36.9285ZM107.366 41.989C107.175 42.2253 106.961 42.4232 106.672 42.6186C106.414 42.774 106.138 42.8967 105.852 42.9844C105.557 43.0771 105.257 43.1514 104.954 43.2049C104.683 43.2566 104.41 43.2934 104.135 43.3159C103.881 43.3385 103.694 43.3485 103.572 43.3485H101.507V32.0625H103.572C104.139 32.0625 104.732 32.1168 105.35 32.222C105.891 32.3147 106.393 32.5452 106.864 32.8959C106.899 32.9235 106.936 32.9469 106.97 32.9753C107.001 33.0012 107.037 33.0212 107.068 33.0479C107.227 33.1949 107.373 33.3485 107.498 33.5097C108.306 34.4918 108.823 35.994 108.823 37.6759C108.823 39.4487 108.247 41.0145 107.366 41.9898V41.989ZM146.921 31.4362H146.184C146.022 32.0926 145.669 32.4216 145.122 32.4216C144.9 32.4216 144.668 32.3749 144.426 32.278C144.083 32.1444 143.74 32.0124 143.395 31.8822C143.025 31.7427 142.646 31.6316 142.261 31.549C141.856 31.4705 141.446 31.4329 141.035 31.4379C140.551 31.4379 139.928 31.4421 139.311 31.559C138.696 31.6759 138.022 31.792 137.297 32.1477C136.656 32.4609 136.245 32.6947 135.63 33.2642C135.016 33.8346 134.435 34.5636 133.888 35.4504C133.284 36.4876 132.853 37.5498 132.602 38.6379C132.352 39.726 132.224 40.8742 132.224 42.0784C132.224 43.4963 132.374 44.7431 132.68 45.8195C132.983 46.8984 133.367 47.8403 133.833 48.642C134.227 49.3 134.701 49.9021 135.242 50.4332C135.73 50.9008 136.285 51.285 136.886 51.5731C137.49 51.8737 138.029 52.0683 138.609 52.1451C139.209 52.2152 139.811 52.2486 140.415 52.2445C141.084 52.2445 141.706 52.1685 142.281 52.0148C142.848 51.8662 143.394 51.6399 143.904 51.3409C144.207 51.1722 144.486 51.0136 144.737 50.8649C144.99 50.7171 145.014 50.6428 145.275 50.6428C145.478 50.6428 145.635 50.6954 145.745 50.8031C145.856 50.9075 145.948 51.0294 146.019 51.1664C146.089 51.3067 146.139 51.447 146.171 51.5965C146.2 51.7434 146.213 52.1768 146.213 52.2395H146.897L146.899 45.3201H146.346C146.356 45.4737 146.363 45.6274 146.363 45.7869C146.363 46.89 146.074 47.8963 145.602 48.6687C145.577 48.713 145.552 48.7581 145.523 48.8023C144.987 49.6382 144.273 50.3313 143.437 50.8274C142.571 51.3535 141.712 51.6165 140.864 51.6165C140.321 51.6165 139.777 51.4896 139.23 51.2374C138.72 51.0052 138.249 50.6879 137.835 50.2979C137.558 50.0374 137.305 49.7501 137.081 49.4395C136.833 49.0821 136.632 48.7088 136.337 47.8078C136.28 47.6416 136.234 47.4721 136.197 47.2992C135.87 45.8562 135.676 43.9815 135.676 41.9305C135.676 37.9423 136.428 35.3327 137.285 34.2053C137.33 34.1419 137.457 33.9857 137.505 33.9231C137.684 33.7001 137.877 33.4888 138.083 33.2909C138.312 33.0588 138.572 32.8625 138.855 32.708C139.203 32.5043 139.572 32.344 139.956 32.2287C140.379 32.1026 140.88 32.0592 141.388 32.0592C142.196 32.0592 142.921 32.2379 143.567 32.5978C144.213 32.9544 144.729 33.407 145.113 33.9531C145.294 34.227 145.456 34.5535 145.597 34.9327C145.738 35.3101 145.859 35.7043 145.961 36.1151C146.063 36.526 146.144 36.9143 146.205 37.2817C146.263 37.6517 146.304 37.9506 146.323 38.1811H146.923V31.4346H146.921L146.921 31.4362Z" fill="#989898"/>
</svg>
